<?xml version="1.0" encoding="utf-8"?>
<!-- Generator: Adobe Illustrator 30.0.0, SVG Export Plug-In . SVG Version: 9.03 Build 0)  -->
<svg version="1.0" id="Layer_1" xmlns="http://www.w3.org/2000/svg" xmlns:xlink="http://www.w3.org/1999/xlink" x="0px" y="0px"
	 viewBox="0 0 209.04 209.04" style="enable-background:new 0 0 209.04 209.04;" xml:space="preserve">
<style type="text/css">
	.st0{clip-path:url(#SVGID_00000040559813048540075260000002255534304653331643_);}
	.st1{fill:#A19D99;}
	.st2{fill:#D4D4D4;}
	.st3{fill:#525252;}
	.st4{fill:#1F1F1F;}
	.st5{opacity:0.57;fill:#54524F;}
	.st6{fill:#191B1C;}
	.st7{opacity:0.32;fill:#54524F;}
	.st8{opacity:0.65;}
	.st9{opacity:0.55;fill:url(#SVGID_00000023239642713672523910000000072975345834566788_);}
	.st10{opacity:0.55;fill:url(#SVGID_00000085242217552254709770000003875992690269702272_);}
	.st11{opacity:0.29;fill:url(#SVGID_00000135671900460957999000000004499103241284726157_);}
	.st12{opacity:0.29;fill:url(#SVGID_00000028324399332147890130000003364665126044914363_);}
	.st13{fill:url(#SVGID_00000119094458690336492500000006672648353913671077_);}
	.st14{fill:url(#SVGID_00000072958861463144459250000004960517350430279312_);}
	.st15{fill:url(#SVGID_00000056398170836438250130000006885688954310372768_);}
	.st16{opacity:0.48;fill:url(#SVGID_00000164496006880944065560000001261994109733689514_);}
	.st17{fill:none;stroke:#E8F8F8;stroke-width:1.0846;stroke-miterlimit:10;}
	.st18{opacity:0.36;fill:#E8F8F8;}
	.st19{fill:url(#SVGID_00000015340307775444242230000008194259963534082203_);}
	.st20{fill:url(#SVGID_00000102502596956766257000000012674520185052062885_);}
	.st21{fill:url(#SVGID_00000050653338283649043470000013999788500502897073_);}
	.st22{fill:none;stroke:#E8F8F8;stroke-width:1.3611;stroke-miterlimit:10;}
	.st23{fill:url(#SVGID_00000088818596573847227660000010634601784566377919_);}
	.st24{fill:url(#SVGID_00000136369651705798683010000010800726717586850749_);}
	.st25{fill:url(#SVGID_00000104688591023156514770000003160483097050913165_);}
	.st26{fill:url(#SVGID_00000101068095356954225620000000655362939723959430_);}
	.st27{fill:#E8F8F8;}
	.st28{fill:#FFFFFF;}
</style>
<g>
	<g>
		<g>
			<g>
				<g>
					<path class="st28" d="M93.75,142.06h-22.6l5.98-5.8h16.63c1.41,0,2.56-1.14,2.56-2.54v-16.05l5.8-5.63v21.68
						C102.1,138.32,98.36,142.06,93.75,142.06z M77.69,139.41h16.05c3.14,0,5.7-2.55,5.7-5.69v-15.4l-0.49,0.48v14.93
						c0,2.87-2.34,5.2-5.21,5.2H78.2L77.69,139.41z M65.67,137.96l-0.58-2.2c-0.17-0.65-0.26-1.36-0.26-2.04v-20.57
						c0-4.61,3.75-8.36,8.36-8.36h20.57c0.99,0,1.96,0.17,2.86,0.51l1.97,0.74l-4.71,4.55H73.18c-1.41,0-2.56,1.15-2.56,2.56v19.98
						L65.67,137.96z M73.18,107.45c-3.14,0-5.7,2.56-5.7,5.7v19.34l0.49-0.48v-18.86c0-2.87,2.34-5.21,5.21-5.21h19.61l0.51-0.49
						H73.18z"/>
				</g>
			</g>
		</g>
		<g>
			<g>
				<g>
					<path class="st28" d="M136.88,106.12h-20.57c-3.87,0-7.03,3.15-7.03,7.03v20.57c0,3.87,3.16,7.01,7.03,7.01h20.57
						c3.87,0,7.01-3.15,7.01-7.01v-20.57C143.9,109.27,140.75,106.12,136.88,106.12z M140.75,133.72c0,2.12-1.73,3.87-3.87,3.87
						h-20.57c-2.14,0-3.88-1.75-3.88-3.87v-20.57c0-2.14,1.75-3.88,3.88-3.88h20.57c2.14,0,3.87,1.75,3.87,3.88V133.72z"/>
				</g>
			</g>
		</g>
		<g>
			<g>
				<g>
					<path class="st28" d="M93.75,66.01H73.18c-3.87,0-7.03,3.15-7.03,7.01v20.57c0,3.87,3.16,7.03,7.03,7.03h20.57
						c3.87,0,7.03-3.16,7.03-7.03V73.02C100.78,69.15,97.62,66.01,93.75,66.01z M97.63,93.59c0,2.14-1.75,3.88-3.88,3.88H73.18
						c-2.14,0-3.88-1.75-3.88-3.88V73.02c0-2.14,1.75-3.87,3.88-3.87h20.57c2.14,0,3.88,1.73,3.88,3.87V93.59z"/>
				</g>
			</g>
		</g>
		<g>
			<g>
				<g>
					<path class="st28" d="M127.37,103.31l-0.56-0.02c-2.21-0.15-4.24-1.16-5.72-2.84l-3.22-3.69l4.16-4.04l3.42,3.92
						c0.45,0.5,1.08,0.81,1.75,0.85c0.71,0.03,1.34-0.18,1.83-0.62l12.61-11.05c0.52-0.45,0.82-1.08,0.87-1.76
						c0.04-0.68-0.18-1.33-0.63-1.84l-4.15-4.72l4.17-4.06l4.35,4.95c1.47,1.67,2.19,3.82,2.04,6.05c-0.15,2.23-1.15,4.26-2.83,5.73
						l-12.6,11.06C131.34,102.58,129.39,103.31,127.37,103.31z M121.52,96.92l1.56,1.79c1.01,1.15,2.39,1.84,3.9,1.94l0.21,0.01
						c1.61-0.03,2.86-0.48,3.92-1.41l12.6-11.06c1.14-1,1.83-2.39,1.93-3.91c0.1-1.52-0.39-2.99-1.39-4.13l-2.5-2.85l-0.36,0.35
						l2.48,2.83c0.92,1.04,1.38,2.38,1.29,3.77c-0.09,1.39-0.72,2.66-1.77,3.58l-12.6,11.04c-1.01,0.91-2.35,1.37-3.75,1.29
						c-1.37-0.08-2.64-0.7-3.58-1.74l-1.59-1.82L121.52,96.92z M113.37,91.68l-3.34-3.82c-1.47-1.7-2.2-3.85-2.06-6.04
						c0.15-2.22,1.15-4.25,2.82-5.73l12.62-11.06c1.68-1.47,3.82-2.2,6.04-2.06c2.22,0.15,4.26,1.16,5.74,2.84l2.23,2.53l-4.17,4.06
						l-2.43-2.78c-0.45-0.51-1.06-0.81-1.74-0.85l-0.2-0.01c-0.59,0-1.18,0.22-1.66,0.65l-12.59,11.04
						c-0.51,0.46-0.82,1.08-0.86,1.76c-0.04,0.69,0.18,1.34,0.62,1.83l3.15,3.6L113.37,91.68z M128.9,65.6
						c-1.37,0-2.68,0.5-3.73,1.42l-12.61,11.05c-1.14,1.01-1.82,2.4-1.93,3.92c-0.1,1.49,0.4,2.96,1.41,4.12l1.5,1.71l0.36-0.35
						l-1.48-1.69c-0.91-1.01-1.37-2.35-1.29-3.75c0.08-1.38,0.7-2.65,1.75-3.58l12.61-11.05c0.97-0.84,2.19-1.3,3.44-1.3l0.24,0.01
						c1.47,0.09,2.74,0.71,3.67,1.76l0.59,0.68l0.35-0.34l-0.56-0.64c-1.01-1.15-2.4-1.84-3.92-1.94
						C129.15,65.61,129.02,65.6,128.9,65.6z"/>
				</g>
			</g>
		</g>
	</g>
	<g>
		<g>
			
				<rect x="47.82" y="103.19" transform="matrix(0.7185 -0.6955 0.6955 0.7185 -43.2738 102.1231)" class="st28" width="113.41" height="2.66"/>
		</g>
		<g>
			<path class="st28" d="M63.77,148.2c-1.16,0-2.25-0.46-3.06-1.3c-1.63-1.68-1.59-4.38,0.1-6.01l81.51-78.86
				c1.69-1.63,4.38-1.58,6.02,0.1c1.63,1.68,1.58,4.38-0.1,6.01l-81.51,78.86C65.93,147.78,64.88,148.2,63.77,148.2z M145.28,63.49
				c-0.4,0-0.8,0.15-1.11,0.45L62.66,142.8c-0.63,0.61-0.65,1.63-0.04,2.26c0.59,0.61,1.65,0.63,2.26,0.04l81.51-78.86
				c0.63-0.61,0.65-1.63,0.04-2.26C146.11,63.66,145.69,63.49,145.28,63.49z"/>
		</g>
	</g>
</g>
</svg>
