<?xml version="1.0" encoding="utf-8"?>
<!-- Generator: Adobe Illustrator 30.0.0, SVG Export Plug-In . SVG Version: 9.03 Build 0)  -->
<svg version="1.0" id="Layer_1" xmlns="http://www.w3.org/2000/svg" xmlns:xlink="http://www.w3.org/1999/xlink" x="0px" y="0px"
	 viewBox="0 0 209.04 209.04" style="enable-background:new 0 0 209.04 209.04;" xml:space="preserve">
<style type="text/css">
	.st0{clip-path:url(#SVGID_00000067922328854355899810000002762001042674655658_);}
	.st1{fill:#A19D99;}
	.st2{fill:#D4D4D4;}
	.st3{fill:#525252;}
	.st4{fill:#1F1F1F;}
	.st5{opacity:0.57;fill:#54524F;}
	.st6{fill:#191B1C;}
	.st7{opacity:0.32;fill:#54524F;}
	.st8{opacity:0.65;}
	.st9{opacity:0.55;fill:url(#SVGID_00000078747483834194522110000002172606384408877699_);}
	.st10{opacity:0.55;fill:url(#SVGID_00000126315509430050335920000013769033167109687687_);}
	.st11{opacity:0.29;fill:url(#SVGID_00000091005779842063105690000006061494386023694256_);}
	.st12{opacity:0.29;fill:url(#SVGID_00000062880369702811559750000007094039749736091521_);}
	.st13{fill:url(#SVGID_00000124856410016688317730000015794047826231314620_);}
	.st14{fill:url(#SVGID_00000007400005370925647620000011449554476567430056_);}
	.st15{fill:url(#SVGID_00000134972666837930239380000009194537675032845240_);}
	.st16{opacity:0.48;fill:url(#SVGID_00000042724545289398921690000012029819631441262242_);}
	.st17{fill:none;stroke:#E8F8F8;stroke-width:1.0846;stroke-miterlimit:10;}
	.st18{opacity:0.36;fill:#E8F8F8;}
	.st19{fill:url(#SVGID_00000022561967208160469060000009212270960130818488_);}
	.st20{fill:url(#SVGID_00000123402016325469250550000008136369297794828178_);}
	.st21{fill:url(#SVGID_00000046302487293792698570000014628748770808153745_);}
	.st22{fill:none;stroke:#E8F8F8;stroke-width:1.3611;stroke-miterlimit:10;}
	.st23{fill:url(#SVGID_00000054251225745165753000000011625329792432886933_);}
	.st24{fill:url(#SVGID_00000021797520105108752040000000918789615298535075_);}
	.st25{fill:url(#SVGID_00000085960151887476623370000008262978028410077329_);}
	.st26{fill:url(#SVGID_00000094611254986081354010000009368788088182248323_);}
	.st27{fill:#E8F8F8;}
	.st28{fill:#FFFFFF;}
</style>
<g>
	<g>
		<g>
			<path class="st28" d="M104.76,153.1H68.24c-6.17,0-11.2-5.02-11.2-11.2V67.14c0-6.17,5.02-11.2,11.2-11.2h36.52
				c6.17,0,11.2,5.02,11.2,11.2v74.77C115.96,148.08,110.93,153.1,104.76,153.1z M68.24,58.6c-4.71,0-8.54,3.83-8.54,8.54v74.77
				c0,4.71,3.83,8.54,8.54,8.54h36.52c4.71,0,8.54-3.83,8.54-8.54V67.14c0-4.71-3.83-8.54-8.54-8.54H68.24z M104.76,148.38H68.24
				c-3.57,0-6.48-2.91-6.48-6.48V67.14c0-3.57,2.91-6.48,6.48-6.48h36.52c3.57,0,6.48,2.91,6.48,6.48v74.77
				C111.24,145.48,108.33,148.38,104.76,148.38z M68.24,63.32c-2.11,0-3.82,1.72-3.82,3.82v74.77c0,2.11,1.71,3.82,3.82,3.82h36.52
				c2.11,0,3.82-1.72,3.82-3.82V67.14c0-2.11-1.71-3.82-3.82-3.82H68.24z"/>
		</g>
	</g>
	<g>
		<g>
			<path class="st28" d="M92.72,70.49H80.27c-4.73,0-8.58-3.85-8.58-8.58v-1.33h7.37v1.33c0,0.67,0.54,1.21,1.21,1.21h12.45
				c0.67,0,1.21-0.54,1.21-1.21v-1.33h7.37v1.33C101.31,66.63,97.45,70.49,92.72,70.49z M74.49,63.23c0.6,2.63,2.96,4.6,5.78,4.6
				h12.45c2.81,0,5.18-1.97,5.78-4.6h-2.14c-0.54,1.48-1.97,2.54-3.63,2.54H80.27c-1.66,0-3.09-1.06-3.63-2.54H74.49z"/>
		</g>
	</g>
	<g>
		<g>
			<g>
				<path class="st28" d="M140.89,101.22c-1.62,0-3.35-0.81-3.35-2.31V94.4c-0.29,0-0.6,0-0.89,0v4.51c0,1.98-3.17,2.76-4.71,2.04
					c-0.69-0.32-1.1-0.94-1.1-1.65c0-0.24,0.01-0.74,0.03-1.36c0.02-0.87,0.06-2.6,0.06-3.64c-1.28-0.26-3.48-1.03-3.98-3.85
					c-0.39-2.22-0.28-10.44,0.07-12.54c0.33-1.96,1.77-3.63,2.62-4.62c0.09-0.1,0.17-0.19,0.24-0.28c-0.15-0.3-0.41-0.72-0.6-1.02
					c-0.94-1.55-2-3.3-1.36-4.82c0.22-0.53,0.75-1.22,1.96-1.5c2.75-0.62,3.89,2.05,4.52,3.48c0.15,0.34,0.35,0.81,0.51,1.06
					c0.14-0.03,0.39-0.1,0.57-0.15c0.48-0.13,1-0.3,1.61-0.26c0.5,0.01,0.97,0.14,1.42,0.27c0.2,0.06,0.48,0.14,0.69,0.17
					c0.1-0.18,0.21-0.42,0.34-0.68c0.9-1.8,2.02-4.05,3.86-4.2c0.64-0.05,1.56,0.14,2.4,1.31c1.41,1.96,0.02,3.96-0.91,5.29
					c-0.21,0.3-0.5,0.72-0.65,0.99c0.11,0.13,0.24,0.27,0.38,0.43c0.55,0.63,1.17,1.34,1.47,1.94c1.51,3.03,1.55,11.93,1.16,14.72
					c-0.43,3.07-2.62,3.92-3.93,4.21v5.04c0,0.71-0.41,1.33-1.1,1.65C141.86,101.13,141.41,101.22,140.89,101.22z M140.19,98.46
					c0.14,0.05,0.32,0.08,0.49,0.1V93.2c0-0.8,0.53-1.28,1.57-1.44c1.13-0.17,2.17-0.46,2.39-2.08c0.45-3.18,0.16-11.03-0.91-13.17
					c-0.15-0.29-0.74-0.97-1.09-1.38c-0.68-0.78-0.99-1.13-1.08-1.64c-0.2-1.1,0.5-2.09,1.17-3.06c0.7-1.01,1.22-1.81,0.93-2.21
					c-0.04-0.06-0.08-0.1-0.1-0.13c-0.53,0.44-1.32,2.03-1.63,2.66c-0.53,1.06-0.79,1.59-1.34,1.88c-0.97,0.51-2.02,0.22-2.79,0
					c-0.27-0.07-0.6-0.17-0.76-0.17c-0.18,0-0.57,0.09-0.89,0.17c-0.66,0.17-1.4,0.37-2.15,0.13c-1.07-0.34-1.54-1.42-2.04-2.56
					c-0.7-1.62-1.05-2.06-1.49-1.95c-0.03,0.01-0.06,0.02-0.09,0.02c0.08,0.54,0.8,1.73,1.17,2.33c0.71,1.17,1.22,2.01,1.07,2.88
					c-0.09,0.52-0.42,0.9-0.97,1.53c-0.72,0.83-1.81,2.09-2.02,3.33c-0.33,1.94-0.38,9.88-0.07,11.64c0.22,1.24,1.03,1.59,2.37,1.79
					c0.43,0.06,0.92,0.14,1.29,0.6l0,0c0.36,0.47,0.43,0.55,0.3,5.62c-0.01,0.2-0.01,0.38-0.01,0.55c0.17-0.02,0.34-0.05,0.48-0.1
					V93.2c0-1.46,1.44-1.46,3.1-1.46s3.1,0,3.1,1.46V98.46z M135,70.35L135,70.35L135,70.35z M142.21,91.38h-10.24
					c-0.77,0-1.92-1.15-1.92-1.92v-9h14.07v9C144.13,90.23,142.98,91.38,142.21,91.38z M132.71,88.73h8.76v-5.61h-8.76V88.73z
					 M144.05,79.97h-13.85l0.27-1.56c0.54-3.08,3.12-5.2,6.4-5.25c0.05,0,0.09,0,0.13,0c2.8,0,5.93,1.6,6.7,5.21L144.05,79.97z
					 M133.74,77.31h6.62c-0.85-1.06-2.2-1.55-3.44-1.5C135.83,75.83,134.53,76.25,133.74,77.31z"/>
			</g>
		</g>
		<g>
			<g>
				<path class="st28" d="M148.9,91.73c-1.82,0-3.1-0.93-3.1-2.26c0-0.56-0.03-1.41-0.07-2.39c-0.13-3.41-0.19-5.92,0.12-7.02l0,0
					c0.42-1.5,1.8-2.36,3.44-2.14c1.35,0.19,2.71,1.1,2.71,2.5v9.06C152,90.8,150.73,91.73,148.9,91.73z M148.45,89.03
					c0.26,0.05,0.63,0.05,0.89,0v-8.36c-0.18-0.1-0.49-0.19-0.74-0.13c-0.09,0.02-0.15,0.04-0.2,0.22
					c-0.22,0.79-0.09,4.32-0.02,6.21C148.42,87.76,148.44,88.48,148.45,89.03z"/>
			</g>
		</g>
		<g>
			<g>
				<path class="st28" d="M125.28,91.73c-1.82,0-3.1-0.93-3.1-2.26c0-0.55-0.03-1.41-0.07-2.38c-0.13-3.43-0.19-5.94,0.12-7.03l0,0
					c0.42-1.49,1.74-2.31,3.34-2.08c1.36,0.19,2.81,1.11,2.81,2.45v9.06C128.38,90.8,127.1,91.73,125.28,91.73z M124.83,89.03
					c0.26,0.05,0.63,0.05,0.89,0v-8.26c-0.21-0.12-0.57-0.23-0.81-0.17c-0.05,0.01-0.08,0.02-0.13,0.18
					c-0.22,0.78-0.09,4.31-0.02,6.21C124.79,87.77,124.82,88.48,124.83,89.03z"/>
			</g>
		</g>
	</g>
	<g>
		<g>
			<g>
				<path class="st28" d="M128.61,139.81c-1.39,0-2.93-0.47-4.6-2.1c-4.18-4.05-6.25-12.29-4.51-17.99
					c1.12-3.67,3.73-6.06,7.35-6.72h0c2.1-0.38,3.58,0.06,4.78,0.41c0.76,0.22,1.42,0.41,2.13,0.39c0.95-0.03,1.83-0.25,2.76-0.48
					c2.32-0.57,4.96-1.23,8.34,1.46c1.53,1.21,2.27,2.31,2.35,3.47c0.1,1.45-0.87,2.44-1.72,3.32c-0.89,0.92-1.43,1.54-1.41,2.4
					c0.02,0.93,0.69,1.53,1.79,2.41c1.02,0.82,2.3,1.84,2.18,3.51c-0.17,2.5-4.33,8.67-6.79,9.47c-2.39,0.78-4.09,0.25-5.46-0.18
					c-0.7-0.22-1.3-0.4-1.91-0.39c-0.79,0.03-1.55,0.25-2.35,0.48C130.66,139.52,129.68,139.81,128.61,139.81z M127.32,115.62
					L127.32,115.62c-2.67,0.48-4.45,2.13-5.28,4.88c-1.42,4.69,0.4,11.98,3.82,15.31c1.86,1.81,3.03,1.47,4.96,0.92
					c0.88-0.25,1.88-0.54,2.99-0.58c1.06-0.03,1.94,0.24,2.8,0.51c1.21,0.38,2.26,0.71,3.84,0.19c1.28-0.42,4.85-5.55,4.96-7.13
					c0.02-0.28-0.66-0.82-1.2-1.26c-1.15-0.92-2.73-2.19-2.78-4.41c-0.05-2.04,1.23-3.36,2.16-4.32c0.44-0.46,0.99-1.02,0.97-1.3
					c-0.01-0.09-0.1-0.57-1.35-1.56c-2.36-1.87-3.91-1.49-6.06-0.96c-0.98,0.24-2.09,0.52-3.32,0.56c-1.14,0.04-2.07-0.24-2.97-0.5
					C129.76,115.63,128.8,115.35,127.32,115.62z M129.15,136.07c-0.17,0-0.34-0.01-0.51-0.04c-3.06-0.44-6.01-7.17-6.06-12.06
					c-0.04-4.12,1.86-6.8,5.21-7.34c1.64-0.26,2.99,0.25,4.08,0.66c0.6,0.22,1.16,0.44,1.61,0.46c0.58,0.02,1.2-0.23,1.91-0.53
					c0.7-0.29,1.5-0.62,2.4-0.71c1.91-0.18,3.33-0.08,3.99,0.95c0.68,1.05,0.04,2.17-0.47,3.07c-0.27,0.47-0.54,0.95-0.66,1.38
					c-0.82,3.09,0.46,4.59,1.58,5.91c0.66,0.78,1.29,1.51,1.33,2.49c0.05,1.28-2.6,4.95-3.48,5.38c-1.27,0.6-2.73,0.22-4.15-0.16
					c-0.88-0.23-1.77-0.47-2.52-0.44c-0.55,0.03-1.21,0.24-1.84,0.45C130.79,135.8,129.98,136.07,129.15,136.07z M128.7,119.21
					c-0.16,0-0.31,0.01-0.48,0.04l0,0c-0.71,0.12-2.89,0.47-2.98,4.35c-0.11,4.6,2.69,9.58,3.78,9.81c0.38,0.06,1.06-0.17,1.72-0.38
					c0.77-0.25,1.63-0.54,2.55-0.58c1.15-0.04,2.3,0.25,3.32,0.52c0.8,0.21,1.78,0.46,2.23,0.36c0.48-0.5,1.7-2.27,2.03-2.98
					c-0.11-0.17-0.42-0.53-0.66-0.81c-1.23-1.45-3.3-3.87-2.13-8.31c0.2-0.76,0.6-1.45,0.92-2.01c0.02-0.04,0.05-0.08,0.07-0.13
					c-0.26,0-0.6,0.02-1.04,0.06c-0.5,0.05-1.04,0.27-1.62,0.51c-0.88,0.36-1.84,0.79-3.05,0.72c-0.87-0.04-1.66-0.34-2.43-0.63
					C130.18,119.48,129.46,119.21,128.7,119.21z"/>
			</g>
		</g>
		<g>
			<g>
				<path class="st28" d="M135.58,114.5c-0.32,0-0.64-0.04-0.95-0.11c-1.82-0.44-2.88-1.84-2.83-3.76c0.07-2.71,2.45-6.17,5.53-6.74
					l0,0c2.59-0.48,3.79,0.46,4.35,1.34c1.17,1.84,0.17,4.47-1.04,6.16C139.23,113.37,137.36,114.5,135.58,114.5z M138.63,106.41
					c-0.22,0-0.49,0.02-0.82,0.08l0,0c-1.73,0.32-3.32,2.62-3.36,4.2c-0.02,0.76,0.3,0.99,0.79,1.11c1.09,0.26,2.41-0.8,3.24-1.96
					c1.03-1.44,1.22-2.78,0.96-3.19C139.36,106.52,139.11,106.41,138.63,106.41z"/>
			</g>
		</g>
	</g>
	<g>
		<g>
			<path class="st28" d="M86.5,146.39c-2.68,0-4.86-2.18-4.86-4.86c0-2.68,2.18-4.86,4.86-4.86c2.68,0,4.86,2.18,4.86,4.86
				C91.36,144.21,89.18,146.39,86.5,146.39z M86.5,139.32c-1.22,0-2.21,0.99-2.21,2.21c0,1.22,0.99,2.21,2.21,2.21
				c1.22,0,2.21-0.99,2.21-2.21C88.71,140.31,87.71,139.32,86.5,139.32z"/>
		</g>
	</g>
	<g>
		<g>
			<path class="st28" d="M113.6,136.08h-54.4v-5.8h54.4V136.08z M61.85,133.43h49.09v-0.49H61.85V133.43z"/>
		</g>
	</g>
</g>
</svg>
