<?xml version="1.0" encoding="utf-8"?>
<!-- Generator: Adobe Illustrator 30.0.0, SVG Export Plug-In . SVG Version: 9.03 Build 0)  -->
<svg version="1.0" id="Layer_1" xmlns="http://www.w3.org/2000/svg" xmlns:xlink="http://www.w3.org/1999/xlink" x="0px" y="0px"
	 viewBox="0 0 209.04 209.04" style="enable-background:new 0 0 209.04 209.04;" xml:space="preserve">
<style type="text/css">
	.st0{clip-path:url(#SVGID_00000119828091228263077400000004923590355182775936_);}
	.st1{fill:#A19D99;}
	.st2{fill:#D4D4D4;}
	.st3{fill:#525252;}
	.st4{fill:#1F1F1F;}
	.st5{opacity:0.57;fill:#54524F;}
	.st6{fill:#191B1C;}
	.st7{opacity:0.32;fill:#54524F;}
	.st8{opacity:0.65;}
	.st9{opacity:0.55;fill:url(#SVGID_00000083086548446663156180000007042347685466316472_);}
	.st10{opacity:0.55;fill:url(#SVGID_00000099628386772086323400000002670115962059395714_);}
	.st11{opacity:0.29;fill:url(#SVGID_00000102510978427714962930000006776261395777701530_);}
	.st12{opacity:0.29;fill:url(#SVGID_00000049909104253649344230000011528537532303847339_);}
	.st13{fill:url(#SVGID_00000147181137832807867540000013513602370606511274_);}
	.st14{fill:url(#SVGID_00000151515826970125132020000000435830115968832140_);}
	.st15{fill:url(#SVGID_00000139288277944801735130000002053562800427177652_);}
	.st16{opacity:0.48;fill:url(#SVGID_00000055697515640939138680000012610836334720079489_);}
	.st17{fill:none;stroke:#E8F8F8;stroke-width:1.0846;stroke-miterlimit:10;}
	.st18{opacity:0.36;fill:#E8F8F8;}
	.st19{fill:url(#SVGID_00000149383097529940946550000003144368822889395840_);}
	.st20{fill:url(#SVGID_00000137122263540808407010000016676697950840800431_);}
	.st21{fill:url(#SVGID_00000057147819149038013410000004996250870438927752_);}
	.st22{fill:none;stroke:#E8F8F8;stroke-width:1.3611;stroke-miterlimit:10;}
	.st23{fill:url(#SVGID_00000057129492110043857890000018243423263151433137_);}
	.st24{fill:url(#SVGID_00000152945138219375285020000000768144732817162636_);}
	.st25{fill:url(#SVGID_00000011738090998962527380000010154832475220057786_);}
	.st26{fill:url(#SVGID_00000041999652637196431170000017240754175234456980_);}
	.st27{fill:#E8F8F8;}
	.st28{fill:#FFFFFF;}
</style>
<g>
	<g>
		<path class="st28" d="M101.18,151.2l-0.58-0.08h-1.36l-0.37-0.3c-0.06-0.05-1.38-1.13-1.38-2.36v-8.67h-3.18v9.2
			c0,0.72-0.48,1.09-0.98,1.49c-0.1,0.08-0.19,0.15-0.25,0.21l-0.4,0.51l-0.58-0.08h-1.22l-0.3-0.16c-0.47-0.26-1.57-1.43-1.57-2.31
			v-8.85h-3.18v9.2c0,0.72-0.48,1.09-0.99,1.49c-0.1,0.08-0.19,0.15-0.25,0.21l-0.4,0.51l-0.57-0.08h-1.3l-0.34-0.24
			c-0.15-0.1-1.46-1.04-1.46-2.24v-8.85h-1.24c-4.62,0-10.09-5.47-10.09-10.09v-1.24h-8.84c-1.2,0-2.14-1.31-2.24-1.46l-0.24-0.34
			v-2.29l0.73-0.37c0.33-0.35,0.85-0.92,1.82-0.86l8.78,0.01v-3.18h-8.84c-0.89,0-2.06-1.11-2.32-1.58l-0.16-0.3v-2.22l0.73-0.37
			c0.33-0.35,0.9-0.93,1.82-0.86l8.77,0.01v-3.18h-8.67c-1.22,0-2.31-1.32-2.36-1.37l-0.3-0.37v-2.35l0.73-0.37
			c0.33-0.35,0.9-0.91,1.82-0.86l8.77,0.01v-3.36H60c-0.61,0-0.95-0.37-1.2-0.65c-0.04-0.04-0.08-0.09-0.13-0.14l-0.79-0.16v-2.62
			l0.3-0.37c0.05-0.06,1.13-1.38,2.36-1.38h8.67v-3.18H60c-0.61,0-0.95-0.37-1.2-0.65c-0.04-0.04-0.08-0.09-0.13-0.14l-0.79-0.16
			v-2.49l0.16-0.3c0.26-0.47,1.43-1.58,2.32-1.58h8.84v-3.18H60c-0.61,0-0.95-0.37-1.2-0.65c-0.04-0.04-0.08-0.09-0.13-0.14
			l-0.79-0.16v-2.57l0.25-0.35c0.6-0.84,1.47-1.35,2.46-1.44l8.62,0v-1.24c0-4.52,5.56-10.09,10.09-10.09h1.24l0.07-9.1
			c0.21-0.88,0.78-1.63,1.53-2c0.7-0.34,1.49-0.34,2.22,0c0.01,0.01,1.48,0.87,1.48,1.91v9.2h3.18v-8.85c0-0.77,0.45-1.52,1.21-2
			c0.82-0.53,1.82-0.63,2.62-0.26c0.01,0.01,1.48,0.87,1.48,1.91v9.2h3.18v-8.67c0-1.1,0.77-2.11,1.91-2.51
			c1.08-0.38,2.22-0.08,2.88,0.76c0.23,0.3,0.69,1.53,0.69,1.92v8.49H106v-8.49c0-0.4,0.47-1.65,0.7-1.93
			c0.66-0.83,1.79-1.13,2.88-0.76c1.14,0.4,1.91,1.41,1.91,2.51v8.67h3.19V60c0-1.04,1.47-1.9,1.49-1.91
			c0.79-0.37,1.79-0.27,2.62,0.26c0.75,0.48,1.21,1.23,1.21,2v8.85h3.18V60c0-1.04,1.47-1.9,1.49-1.91c0.73-0.34,1.52-0.34,2.22,0
			c0.75,0.37,1.33,1.11,1.53,2l0.03,0.3l0.03,8.81h1.24c4.52,0,10.08,5.56,10.08,10.09v1.24l9.11,0.07c0.88,0.21,1.63,0.78,2,1.53
			c0.34,0.7,0.34,1.49,0.01,2.22c-0.02,0.03-0.88,1.48-1.91,1.48h-9.2v3.18h8.85c0.77,0,1.52,0.45,2,1.2
			c0.53,0.82,0.63,1.83,0.26,2.62c-0.02,0.03-0.88,1.48-1.91,1.48h-9.2v3.18h8.67c1.1,0,2.11,0.77,2.51,1.92
			c0.38,1.09,0.08,2.22-0.76,2.88c-0.28,0.22-1.52,0.69-1.92,0.69h-8.49V106h8.49c0.4,0,1.64,0.47,1.93,0.7
			c0.83,0.66,1.14,1.79,0.76,2.88c-0.4,1.15-1.41,1.92-2.51,1.92h-8.67v3.18h9.2c1.03,0,1.9,1.45,1.9,1.46
			c0.38,0.81,0.27,1.82-0.25,2.64c-0.48,0.75-1.23,1.2-2,1.2h-8.85v3.18h9.2c1.03,0,1.9,1.45,1.9,1.46c0.35,0.75,0.35,1.54,0,2.24
			c-0.37,0.75-1.11,1.32-2,1.53l-0.3,0.04l-8.81,0.04v1.24c0,4.52-5.56,10.09-10.08,10.09h-1.24l0,8.49
			c-0.15,1.39-0.78,2.25-1.87,2.72l-0.25,0.11h-1.98l-0.37-0.73c-0.35-0.33-0.91-0.88-0.86-1.82l0.01-8.78h-3.18v8.85
			c0,1.04-1.24,2.22-2.05,2.43l-0.34,0.05h-1.7l-0.37-0.73c-0.35-0.33-0.91-0.88-0.86-1.82l0.01-8.78h-3.19v8.67
			c0,1.27-1.13,2.18-1.79,2.51l-0.28,0.14h-2.02l-0.37-0.73c-0.35-0.33-0.91-0.88-0.86-1.82l0.01-8.78h-3.36v9.2
			c0,0.72-0.48,1.09-0.98,1.49c-0.1,0.08-0.19,0.15-0.25,0.21L101.18,151.2z M117.33,139.99l-0.01,8.37c0,0,0.01-0.01,0.01-0.01
			V139.99z M108.84,138.81l-0.01,9.53c0.02-0.02,0.03-0.04,0.04-0.06L108.84,138.81z M125.82,139.1l-0.01,9.18
			c0.01-0.04,0.02-0.08,0.02-0.14L125.82,139.1z M117.41,148.24C117.41,148.24,117.41,148.24,117.41,148.24
			C117.41,148.24,117.41,148.24,117.41,148.24z M100.13,148.24L100.13,148.24L100.13,148.24z M125.82,137.14h3.89
			c3.12,0,7.43-4.31,7.43-7.43v-3.89l1.21,0h-1.21v-9.74c-0.05,4.73-0.12,9.44-0.22,14.14l-0.04,0.28
			c-0.77,3.16-3.21,5.61-6.37,6.37l-0.29,0.04c-4.71,0.1-9.44,0.18-14.18,0.22H125.82z M91.67,137.14h1.28
			c-4.74-0.05-9.47-0.12-14.18-0.22l-0.29-0.04c-3.16-0.77-5.6-3.21-6.37-6.37l-0.04-0.28c-0.1-4.73-0.18-9.47-0.22-14.22v13.71
			c0,3.13,4.31,7.43,7.43,7.43H91.67z M78.98,134.27c16.94,0.36,34.11,0.36,51.04,0c2.11-0.56,3.69-2.14,4.25-4.25
			c0.36-16.93,0.36-34.1,0-51.03c-0.96-3.43-3.72-4.34-5.88-4.49l-48.3,0.06c-2.61,0.18-4.7,1.91-5.36,4.42
			c-0.36,16.93-0.36,34.1,0,51.04C75.29,132.13,76.87,133.71,78.98,134.27z M60.6,125.82h9.43l-9.44-0.01
			C60.59,125.81,60.59,125.81,60.6,125.82z M60.66,117.32h8.34l-8.35-0.01C60.65,117.32,60.66,117.32,60.66,117.32z M137.19,108.83
			h11.28c-0.02,0-0.02-0.03-0.01-0.05c-0.12-0.04-0.25-0.09-0.35-0.12h-10.91C137.19,108.71,137.19,108.77,137.19,108.83z
			 M60.69,108.83h8.33l-8.35-0.01C60.69,108.83,60.69,108.83,60.69,108.83z M137.19,100.34h10.91c0.1-0.03,0.22-0.08,0.35-0.12
			c-0.03-0.03-0.06-0.06-0.08-0.08l-11.18,0.02C137.19,100.22,137.19,100.28,137.19,100.34z M60.76,100.13L60.76,100.13
			L60.76,100.13z M71.86,91.67v1.32c0.05-4.75,0.12-9.5,0.22-14.22l0.04-0.28c0.89-3.69,4.04-6.33,7.85-6.58l0.08,0l41.91-0.05
			h-13.13V60.53c-0.01,0.02-0.02,0.02-0.05,0.01c-0.04,0.12-0.09,0.25-0.12,0.35v10.96h-8.32V60.9c-0.03-0.1-0.08-0.23-0.12-0.35
			c-0.03,0.03-0.06,0.06-0.08,0.08l0.02,11.23H83.18v-0.96l0,0.96h-3.89c-3.13,0-7.43,4.31-7.43,7.43V91.67z M135.09,74.92
			c0.83,0.98,1.43,2.17,1.79,3.55l0.04,0.3c0.1,4.7,0.17,9.42,0.22,14.14v-9.74h0.98l-0.98,0v-3.89
			C137.14,77.9,136.3,76.29,135.09,74.92z M60.71,83.18h6.88H60.71C60.71,83.17,60.71,83.18,60.71,83.18z M128.59,71.86
			c2.32,0.18,4.26,0.96,5.71,2.25c-1.42-1.32-3.13-2.25-4.59-2.25H128.59z M125.82,70.89l0,0.96L125.82,70.89z"/>
	</g>
	<g>
		<path class="st28" d="M80.34,134.12c-2.22,0-5.16-2.04-5.25-4.22c-0.33-10.12-0.28-20.44-0.23-30.41c0.03-6.28,0.06-12.77,0-19.14
			c0.17-2.48,1.69-4.48,3.89-5.2l0.36-0.06c8.84-0.33,17.86-0.28,26.59-0.23c5.55,0.03,11.29,0.06,16.93-0.01
			c0.57,0,1.66,0.23,2.23,0.81c0.75,0.75,0.95,1.89,0.53,2.9c-0.42,1-1.33,1.61-2.39,1.61c-0.01,0-0.01,0-0.01,0l-42.65,0.08
			c-0.03,0.02-0.06,0.05-0.08,0.08l-0.09,48.14c0.03,0.17,0.03,0.19,0.72,0.42c0.66,0.22,2.2,0.73,2.13,2.62
			c-0.05,1.57-1.1,2.59-2.66,2.6C80.35,134.12,80.35,134.12,80.34,134.12z M80.46,131.45c-0.02,0-0.03,0-0.03,0.01
			C80.44,131.46,80.46,131.46,80.46,131.45C80.47,131.45,80.46,131.45,80.46,131.45z M77.74,129.51c0,0.1,0.01,0.19,0.01,0.29
			c0.01,0.11,0.28,0.6,1.06,1.1c0.54,0.34,1.02,0.5,1.34,0.55c-0.03-0.01-0.06-0.02-0.09-0.03
			C79.43,131.21,78.25,130.82,77.74,129.51z M79.41,77.73c-1.09,0.43-1.82,1.44-1.9,2.7c0.07,6.28,0.04,12.78,0.01,19.07
			c-0.03,6.79-0.06,13.74,0.02,20.66l0.14-40.51c0.31-0.94,0.91-1.58,1.81-1.93C79.46,77.73,79.44,77.73,79.41,77.73z M123.09,77.62
			L123.09,77.62L123.09,77.62z M96.29,77.48c-3.95,0-7.93,0.03-11.88,0.11l27.31-0.05c-2.03-0.01-4.04-0.02-6.03-0.03
			C102.59,77.5,99.44,77.48,96.29,77.48z M122.63,77.51c-0.54,0.01-1.09,0.01-1.64,0.02l1.74,0
			C122.7,77.51,122.66,77.51,122.63,77.51z M122.99,77.52L122.99,77.52L122.99,77.52L122.99,77.52z"/>
	</g>
	<g>
		<path class="st28" d="M112.71,134.17c-3.16,0-6.31-0.02-9.42-0.03c-5.55-0.03-11.29-0.06-16.93,0.01c-0.57,0-1.65-0.23-2.22-0.8
			c-0.75-0.75-0.96-1.89-0.53-2.9c0.42-1,1.33-1.61,2.39-1.61c0,0,0.01,0,0.01,0l42.65-0.08c0.03-0.02,0.06-0.05,0.08-0.08
			l0.09-48.14c-0.03-0.17-0.03-0.19-0.72-0.42c-0.66-0.22-2.2-0.73-2.13-2.62c0.05-1.57,1.1-2.59,2.66-2.6c0.01,0,0.01,0,0.02,0
			c2.22,0,5.15,2.04,5.25,4.22c0.33,10.14,0.28,20.47,0.23,30.46c-0.03,6.26-0.06,12.73,0,19.08c-0.17,2.48-1.69,4.48-3.89,5.2
			l-0.36,0.06C124.2,134.12,118.43,134.17,112.71,134.17z M97.28,131.46c2.02,0.01,4.04,0.02,6.03,0.03
			c6.99,0.04,14.17,0.08,21.28-0.08L97.28,131.46z M86.26,131.48c0.04,0.01,0.08,0.01,0.11,0.01c0.54-0.01,1.09-0.01,1.64-0.02
			L86.26,131.48z M85.91,131.37L85.91,131.37L85.91,131.37z M131.46,88.79l-0.13,40.55c-0.31,0.94-0.91,1.58-1.81,1.93
			c0.02,0,0.05,0,0.07,0c1.09-0.43,1.82-1.44,1.9-2.7c-0.07-6.26-0.04-12.75-0.01-19.01C131.52,102.73,131.55,95.75,131.46,88.79z
			 M128.86,77.55c0.03,0.01,0.06,0.02,0.09,0.03c0.62,0.2,1.81,0.6,2.32,1.91c0-0.1-0.01-0.19-0.01-0.29
			c-0.01-0.11-0.28-0.6-1.06-1.1C129.66,77.76,129.17,77.6,128.86,77.55z M128.57,77.53c-0.02,0-0.03,0.01-0.04,0.01
			C128.56,77.55,128.57,77.54,128.57,77.53z"/>
	</g>
	<g>
		<path class="st28" d="M96.95,114.2c-0.52,0-1.15-0.16-1.9-0.63l-0.26-0.17l-3.82-6.29v4.72c0,1.32-1.3,2.21-2.55,2.31
			c-1.43,0.1-2.51-0.74-2.73-2.11l-0.02-0.16l0.01-0.16c0.17-2.08,0.06-4.43-0.05-6.71c-0.12-2.64-0.25-5.37,0.04-7.84
			c0.13-1.16,0.82-2.02,1.83-2.3c1.07-0.3,2.26,0.14,3.02,1.11l3.64,5.93v-4.94c0-1.24,1.26-2.06,2.48-2.15
			c1.51-0.09,2.6,0.84,2.81,2.33l0.02,0.13l-0.01,0.13c-0.13,2.06-0.04,4.32,0.04,6.5c0.1,2.5,0.2,5.09-0.02,7.51
			c-0.14,1.55-0.87,2.22-1.46,2.52C97.73,114.09,97.38,114.2,96.95,114.2z M96.71,111.46c0.02,0.01,0.04,0.02,0.06,0.03
			c0.02-0.07,0.03-0.16,0.05-0.29c0.2-2.25,0.1-4.75,0.01-7.17c-0.01-0.24-0.02-0.48-0.03-0.72v8.02L88.33,97.5
			c-0.03-0.02-0.14-0.06-0.16-0.06c-0.13,2.29-0.01,4.91,0.11,7.45c0.01,0.24,0.02,0.48,0.03,0.71v-7.97L96.71,111.46z"/>
	</g>
	<g>
		<path class="st28" d="M101.89,114.22c-1.32,0-2.37-0.87-2.58-2.18l-0.02-0.22l0.18-15.41c0.38-0.96,1.29-1.59,2.49-1.73
			c1.51-0.17,7.15-0.24,8.84,0.06c1.01,0.18,1.85,0.89,2.19,1.84c0.32,0.9,0.13,1.87-0.5,2.59c-0.3,0.34-1.48,0.99-2.06,0.99h-5.84
			v1.59h3.01c1.02,0,1.97,0.65,2.43,1.65c0.45,0.98,0.3,2.07-0.37,2.85c-0.3,0.35-1.5,0.99-2.06,0.99h-3.01v4.78
			c0,1.14-1.05,2.08-2.45,2.19C102.06,114.22,101.97,114.22,101.89,114.22z M101.99,104.59h5.37c0.07-0.03,0.16-0.07,0.24-0.12
			c-0.02-0.03-0.05-0.06-0.08-0.08l-5.53,0.02L101.99,104.59z M102.03,97.51h8.16c0.06-0.03,0.14-0.06,0.21-0.1
			c-1.51-0.28-6.59-0.26-8.14-0.09c-0.1,0.01-0.17,0.03-0.22,0.04V97.51z"/>
	</g>
	<g>
		<path class="st28" d="M118.83,114.29c-1.1,0-2.19-0.25-3.23-0.74c-2.53-1.22-4.24-3.73-4.47-6.55c-0.23-2.9-0.84-10.62,5.96-12.07
			c1.96-0.42,5.53,0.07,7.14,2.07c0.82,1.01,0.9,2.3,0.23,3.29c-0.68,0.99-1.94,1.38-3.21,0.97c-0.48-0.15-0.84-0.43-1.15-0.67
			c-0.34-0.26-0.54-0.41-0.81-0.44c-1.37-0.17-1.84,0.3-2,0.45c-1.26,1.21-0.96,4.68-0.86,5.83c0.09,1.03,0.55,1.84,1.27,2.22
			c0.71,0.37,1.59,0.3,2.48-0.2c0.14-0.08,0.25-0.18,0.36-0.27c0.47-0.4,1.43-1.24,3.04-0.4c1.16,0.6,1.39,1.52,1.42,2.02
			c0.1,1.71-1.65,2.98-2,3.21C121.73,113.86,120.28,114.29,118.83,114.29z M116.08,110.77c0.21,0.15,0.44,0.28,0.67,0.39
			c1.57,0.75,3.31,0.63,4.76-0.36c0.14-0.1,0.28-0.21,0.39-0.32c-0.13,0.1-0.26,0.19-0.41,0.27c-1.68,0.95-3.51,1.04-5.03,0.24
			C116.33,110.92,116.2,110.85,116.08,110.77z M113.69,105c0.01,0.56,0.04,1.16,0.09,1.79c0.08,0.97,0.41,1.88,0.95,2.65
			c-0.53-0.78-0.86-1.73-0.95-2.79C113.74,106.12,113.7,105.56,113.69,105z M118.58,97.44c-0.34,0-0.65,0.03-0.93,0.09
			c-2.15,0.46-3.37,1.87-3.79,4.54c0.22-1.31,0.7-2.51,1.6-3.38c0.99-0.95,2.32-1.36,3.96-1.19
			C119.13,97.46,118.85,97.44,118.58,97.44z M120.2,97.64c0.69,0.21,1.18,0.58,1.53,0.85c0.12,0.09,0.28,0.22,0.34,0.24
			c0.14,0.04,0.22,0.03,0.24,0.02l-0.14-0.1C121.79,98.19,121.03,97.84,120.2,97.64z"/>
	</g>
</g>
</svg>
