<?xml version="1.0" encoding="utf-8"?>
<!-- Generator: Adobe Illustrator 30.0.0, SVG Export Plug-In . SVG Version: 9.03 Build 0)  -->
<svg version="1.0" id="Layer_1" xmlns="http://www.w3.org/2000/svg" xmlns:xlink="http://www.w3.org/1999/xlink" x="0px" y="0px"
	 viewBox="0 0 209.04 209.04" style="enable-background:new 0 0 209.04 209.04;" xml:space="preserve">
<style type="text/css">
	.st0{clip-path:url(#SVGID_00000024687412045118542470000002783919400721377200_);}
	.st1{fill:#A19D99;}
	.st2{fill:#D4D4D4;}
	.st3{fill:#525252;}
	.st4{fill:#1F1F1F;}
	.st5{opacity:0.57;fill:#54524F;}
	.st6{fill:#191B1C;}
	.st7{opacity:0.32;fill:#54524F;}
	.st8{opacity:0.65;}
	.st9{opacity:0.55;fill:url(#SVGID_00000014604772038476392060000017199831877627170179_);}
	.st10{opacity:0.55;fill:url(#SVGID_00000116220397508531174270000017634444190860882569_);}
	.st11{opacity:0.29;fill:url(#SVGID_00000010292198861910226200000003375768560146119078_);}
	.st12{opacity:0.29;fill:url(#SVGID_00000091737630539306853070000008590038841759602104_);}
	.st13{fill:url(#SVGID_00000054250794101164107130000005642549463223506564_);}
	.st14{fill:url(#SVGID_00000008124055468445605850000010534010469533350548_);}
	.st15{fill:url(#SVGID_00000145767362338513896960000010059453711295044249_);}
	.st16{opacity:0.48;fill:url(#SVGID_00000106852882800906169710000016795024523059980697_);}
	.st17{fill:none;stroke:#E8F8F8;stroke-width:1.0846;stroke-miterlimit:10;}
	.st18{opacity:0.36;fill:#E8F8F8;}
	.st19{fill:url(#SVGID_00000005946964268526732870000006971913916000537492_);}
	.st20{fill:url(#SVGID_00000147902641977180004020000006928841588789925781_);}
	.st21{fill:url(#SVGID_00000166634091743050616720000009316872606505081530_);}
	.st22{fill:none;stroke:#E8F8F8;stroke-width:1.3611;stroke-miterlimit:10;}
	.st23{fill:url(#SVGID_00000071561510562709223290000004343764911443939481_);}
	.st24{fill:url(#SVGID_00000008149626141822744760000017512682360569692606_);}
	.st25{fill:url(#SVGID_00000093862650764003391840000018118557603697453704_);}
	.st26{fill:url(#SVGID_00000047022623330113414970000008438400444552268418_);}
	.st27{fill:#E8F8F8;}
	.st28{fill:#FFFFFF;}
</style>
<g>
	<g>
		<path class="st28" d="M133.37,159.62H75.2l-0.24-0.1c-3.46-1.42-5.36-3.91-5.63-7.41l-0.01-94.84c0.09-4.09,2.95-7.36,6.79-7.83
			l56.22-0.02c4.08,0.12,7.31,3.55,7.39,7.82l0,94.76c-0.23,3.03-1.67,5.38-4.05,6.71L133.37,159.62z M75.73,156.96h57.14l1.67-0.64
			c1.41-0.81,2.37-2.4,2.52-4.42V57.27c-0.05-2.47-1.85-5.11-4.78-5.19l-56.02,0.01c-2.36,0.29-4.23,2.49-4.29,5.21l0,94.7
			C72.16,154.31,73.36,155.92,75.73,156.96z M77.2,156.22c-1.24,0-2.56-0.95-2.84-1.17c-0.9-0.69-1.36-1.41-1.36-2.14v-9.68h63.05
			v9.45c0,0.78-0.42,1.55-1.21,2.24c-0.86,0.74-2.23,1.41-3.38,1.25l-53.93,0.01C77.42,156.21,77.31,156.22,77.2,156.22z
			 M75.65,152.66c0.32,0.35,1.2,0.88,1.55,0.9l0.17-0.05l0.03,0.02h54.24c0.66,0.07,1.62-0.61,1.77-0.98l-0.01-6.67H75.65V152.66z
			 M136.05,142.46H72.99V56.14c0-1.64,2.63-3.1,3.54-3.24c1.47-0.23,3.15-0.14,4.79-0.05c1.27,0.07,2.46,0.14,3.5,0.06l0.75-0.06
			l0.44,0.61c0.74,1.04,1.3,2.22,1.85,3.35c1.2,2.49,2.24,4.65,4.77,5.18c3.55-0.18,7.26-0.05,10.85,0.06
			c4.03,0.13,8.19,0.26,12.05-0.02c3.27-0.24,4.24-2.26,5.58-5.06c0.55-1.16,1.13-2.36,1.92-3.5l0.43-0.62l0.76,0.06
			c1.03,0.08,2.23,0.01,3.5-0.06c1.63-0.09,3.32-0.18,4.79,0.05c0.91,0.14,3.54,1.6,3.54,3.24V142.46z M75.65,139.8h57.74V56.4
			c-0.29-0.32-1.03-0.81-1.32-0.89c-1.17-0.18-2.71-0.1-4.2-0.01c-1.02,0.06-2.06,0.12-3.05,0.09c-0.49,0.81-0.91,1.68-1.32,2.52
			c-1.39,2.91-2.97,6.2-7.77,6.56c-4,0.3-8.24,0.16-12.34,0.03c-3.59-0.12-7.3-0.24-10.79-0.06l-0.15,0.01l-0.15-0.03
			c-3.96-0.72-5.48-3.88-6.83-6.66c-0.41-0.84-0.8-1.65-1.24-2.37c-0.98,0.02-2.03-0.03-3.06-0.09c-1.49-0.08-3.04-0.17-4.23,0.02
			c-0.26,0.07-1.01,0.56-1.29,0.88V139.8z M75.57,56.51L75.57,56.51L75.57,56.51z M109.87,61.42c-2.25,0-4.52-0.07-6.74-0.15
			c-3.27-0.11-6.65-0.22-9.82-0.08l-0.14,0.01l-0.14-0.02c-2.55-0.43-3.62-3.05-4.4-4.97c-0.21-0.5-0.4-0.99-0.61-1.39l-1-1.94
			h35.04l-1.03,1.95c-0.31,0.58-0.54,1.18-0.77,1.76c-0.78,1.97-1.76,4.42-5.21,4.68C113.35,61.37,111.62,61.42,109.87,61.42z
			 M96.48,58.47c2.24,0,4.51,0.08,6.73,0.15c3.89,0.13,7.91,0.26,11.63-0.02c1.73-0.13,2.15-1.02,2.94-3.01
			c0.01-0.02,0.02-0.04,0.03-0.07H91.22c0.56,1.35,1.19,2.75,2.14,3C94.39,58.49,95.43,58.47,96.48,58.47z"/>
	</g>
	<g>
		<path class="st28" d="M113.07,112.77c-3.07,0-6.17-0.11-9.22-0.22c-4.98-0.18-10.14-0.37-14.92-0.05
			c-3.36-0.18-5.54-2.27-5.86-5.44c-0.46-4.62-0.26-9.66-0.06-14.54c0.18-4.35,0.36-8.84,0.06-12.95l-0.01-0.13l0.02-0.13
			c0.33-2.55,2.1-4.49,4.62-5.07l0.3-0.03l32.21-0.06c3.48,0.29,5.5,2.31,5.79,5.68c0.39,4.53,0.22,9.38,0.05,14.07
			c-0.15,4.25-0.31,8.65-0.04,12.74l0.01,0.1l-0.01,0.1c-0.29,3.37-2.3,5.38-5.67,5.67C117.96,112.69,115.53,112.77,113.07,112.77z
			 M94.73,109.67c3.04,0,6.16,0.11,9.21,0.22c5.41,0.19,11.01,0.4,16.14-0.04c2.04-0.17,3.04-1.15,3.24-3.16
			c-0.27-4.19-0.11-8.62,0.05-12.9c0.17-4.61,0.34-9.38-0.04-13.75c-0.18-2.07-1.18-3.07-3.25-3.25l-31.94,0.07
			c-1.32,0.35-2.21,1.34-2.43,2.67c0.3,4.21,0.12,8.73-0.06,13.1c-0.19,4.78-0.39,9.73,0.05,14.17c0.19,1.86,1.33,2.94,3.21,3.05
			C90.8,109.72,92.75,109.67,94.73,109.67z M122.32,108.83h-8.15v-4.87c-0.03-0.29-0.42-1.77-0.61-2.33
			c-0.68-2.06-2.09-3.79-4.28-5.29l-1.1-0.75l0.76-1.1c1.97-2.84,2.26-5.2,0.94-7.64c-1.05-1.95-3.05-3.12-5.36-3.12
			c-2.3,0-4.31,1.16-5.36,3.12c-1.31,2.44-1.02,4.79,0.94,7.64l0.76,1.1l-1.1,0.75c-2.2,1.5-3.6,3.23-4.28,5.29
			c-0.18,0.56-0.58,2.05-0.61,2.38l0,4.83h-8.15V77.8h35.6V108.83z M116.83,106.17h2.83V80.46H89.37v25.71h2.84v-2.22
			c0-0.8,0.74-3.15,0.74-3.17c0.76-2.28,2.16-4.21,4.27-5.88c-1.89-3.26-2.02-6.31-0.4-9.32c1.5-2.78,4.45-4.51,7.69-4.51
			c0,0,0,0,0,0c3.25,0,6.2,1.73,7.7,4.51c1.62,3,1.49,6.06-0.4,9.32c2.11,1.67,3.51,3.6,4.27,5.88c0.01,0.02,0.75,2.37,0.75,3.17
			V106.17z M113.17,108.83h-17.3v-5.79c0-0.79,1.5-3.36,1.51-3.38c1.62-2.29,4.42-3.61,7.23-3.61c2.9,0.03,5.57,1.44,7.15,3.77
			c0.15,0.22,1.41,2.56,1.41,3.45V108.83z M98.53,106.17h11.99v-2.9c-0.07-0.18-0.74-1.64-0.95-1.97c-1.08-1.6-2.95-2.57-4.98-2.59
			c-2,0.04-3.91,0.91-5.03,2.48c-0.15,0.24-0.82,1.57-1.03,2.06V106.17z M104.48,95.13c-0.22,0-0.44-0.01-0.66-0.03
			c-3.02-0.29-4.46-2.72-4.55-5.01c-0.1-2.73,1.56-4.93,4.04-5.35l0,0c2.32-0.39,4.32,0.35,5.49,2.04c1.18,1.71,1.27,4.08,0.21,5.88
			C108.09,94.25,106.46,95.13,104.48,95.13z M103.77,87.36c-1.33,0.23-1.88,1.49-1.84,2.63c0.04,1.1,0.62,2.32,2.14,2.46
			c1.23,0.12,2.15-0.27,2.66-1.13c0.53-0.9,0.48-2.18-0.11-3.03C106.05,87.46,105.06,87.14,103.77,87.36L103.77,87.36z"/>
	</g>
	<g>
		<path class="st28" d="M108.76,125.79c-2.71,0-5.42-0.01-8.09-0.03c-4.78-0.02-9.56-0.04-14.33,0l-0.12,0l-0.12-0.02
			c-1.67-0.28-2.85-1.41-2.99-2.86c-0.14-1.41,0.78-2.71,2.33-3.31l0.47-0.09l36.89-0.05l0.1,0.02c1.54,0.23,2.7,1.25,2.95,2.58
			c0.25,1.31-0.42,2.6-1.75,3.37l-0.29,0.17l-0.33,0.01C118.61,125.74,113.66,125.79,108.76,125.79z M92.55,123.08
			c2.71,0,5.43,0.01,8.14,0.03c7.34,0.04,14.92,0.07,22.34-0.16c0.17-0.14,0.26-0.29,0.23-0.41c-0.03-0.16-0.25-0.35-0.65-0.44
			l-36.4,0.05c-0.32,0.16-0.46,0.36-0.44,0.48c0.01,0.14,0.21,0.37,0.69,0.48C88.48,123.09,90.51,123.08,92.55,123.08z"/>
	</g>
	<g>
		<path class="st28" d="M108.78,134.94c-2.72,0-5.43-0.01-8.1-0.03c-4.78-0.02-9.56-0.04-14.34,0l-0.12,0l-0.12-0.02
			c-1.67-0.28-2.85-1.41-2.99-2.86c-0.14-1.42,0.78-2.71,2.33-3.31l0.47-0.09l36.89-0.05l0.1,0.02c1.54,0.23,2.7,1.25,2.95,2.58
			c0.25,1.31-0.42,2.6-1.75,3.37l-0.29,0.17l-0.33,0.01C118.62,134.89,113.68,134.94,108.78,134.94z M92.54,132.23
			c2.72,0,5.43,0.01,8.15,0.03c7.34,0.03,14.92,0.07,22.33-0.16c0.17-0.14,0.26-0.29,0.23-0.42c-0.03-0.16-0.25-0.35-0.65-0.43
			l-36.4,0.05c-0.32,0.16-0.46,0.36-0.44,0.48c0.01,0.14,0.21,0.37,0.69,0.48C88.48,132.24,90.51,132.23,92.54,132.23z"/>
	</g>
</g>
</svg>
