<?xml version="1.0" encoding="utf-8"?>
<!-- Generator: Adobe Illustrator 30.0.0, SVG Export Plug-In . SVG Version: 9.03 Build 0)  -->
<svg version="1.0" id="Layer_1" xmlns="http://www.w3.org/2000/svg" xmlns:xlink="http://www.w3.org/1999/xlink" x="0px" y="0px"
	 viewBox="0 0 209.04 209.04" style="enable-background:new 0 0 209.04 209.04;" xml:space="preserve">
<style type="text/css">
	.st0{clip-path:url(#SVGID_00000092450583613716310340000015492221543822998936_);}
	.st1{fill:#A19D99;}
	.st2{fill:#D4D4D4;}
	.st3{fill:#525252;}
	.st4{fill:#1F1F1F;}
	.st5{opacity:0.57;fill:#54524F;}
	.st6{fill:#191B1C;}
	.st7{opacity:0.32;fill:#54524F;}
	.st8{opacity:0.65;}
	.st9{opacity:0.55;fill:url(#SVGID_00000010998519563784070580000013570373971994291635_);}
	.st10{opacity:0.55;fill:url(#SVGID_00000150784054139261835210000017066203117833269671_);}
	.st11{opacity:0.29;fill:url(#SVGID_00000009559619154076710770000008621114249339993779_);}
	.st12{opacity:0.29;fill:url(#SVGID_00000160883709490189169850000002364310878810496425_);}
	.st13{fill:url(#SVGID_00000072238713377310026910000014499513568607359369_);}
	.st14{fill:url(#SVGID_00000134221521477204404650000015707700965377730977_);}
	.st15{fill:url(#SVGID_00000095303521082140794280000002534375530308997025_);}
	.st16{opacity:0.48;fill:url(#SVGID_00000124155932783048373980000007395067670994958012_);}
	.st17{fill:none;stroke:#E8F8F8;stroke-width:1.0846;stroke-miterlimit:10;}
	.st18{opacity:0.36;fill:#E8F8F8;}
	.st19{fill:url(#SVGID_00000120546891449272835120000008097681168526731176_);}
	.st20{fill:url(#SVGID_00000101061598280119585480000009393864236240745107_);}
	.st21{fill:url(#SVGID_00000065048734373245842630000017348872244464064163_);}
	.st22{fill:none;stroke:#E8F8F8;stroke-width:1.3611;stroke-miterlimit:10;}
	.st23{fill:url(#SVGID_00000047058663128356730510000010677491923864908428_);}
	.st24{fill:url(#SVGID_00000088120162815526289040000013795099527616773531_);}
	.st25{fill:url(#SVGID_00000135650355011126402330000009084791199502757803_);}
	.st26{fill:url(#SVGID_00000094584162497211954170000015611560680753462959_);}
	.st27{fill:#E8F8F8;}
	.st28{fill:#FFFFFF;}
</style>
<g>
	<g>
		<path class="st28" d="M62.74,85.09c-1.56,0-3.34-1.11-3.57-3.53c-1.27-13.51,3.64-21.83,13.47-22.83
			c1.66-0.17,8.46-0.39,10.3,0.05c1.63,0.39,2.71,1.86,2.63,3.57c-0.07,1.47-1.04,3.09-3.07,3.37c-1.72,0.24-3.39,0.16-5.01,0.07
			c-3.05-0.16-5.9-0.31-8.4,1.8l0,0c-3.07,2.6-2.95,5.8-2.8,9.51c0.06,1.44,0.12,2.92-0.01,4.43C66.07,83.97,64.3,85.08,62.74,85.09
			z M78.56,61.17c-2.15,0-4.57,0.09-5.65,0.2C62.3,62.45,61.02,72.8,61.82,81.31c0.1,1.05,0.72,1.13,0.91,1.13
			c0.19,0,0.82-0.08,0.9-1.11c0.11-1.35,0.06-2.75,0.01-4.1c-0.16-4.04-0.32-8.21,3.74-11.65l0,0c3.3-2.78,6.97-2.59,10.22-2.43
			c1.53,0.08,3.07,0.16,4.53-0.05c0.66-0.09,0.78-0.58,0.79-0.87c0.01-0.17-0.01-0.73-0.6-0.87C81.76,61.23,80.24,61.17,78.56,61.17
			z"/>
	</g>
	<g>
		<path class="st28" d="M132.02,150.53c-1.42,0-2.79-0.08-4.06-0.2c-2.4-0.22-3.51-1.98-3.53-3.52c-0.02-1.59,1.11-3.32,3.31-3.58
			c1.45-0.16,3.04-0.1,4.59-0.03l0,0c1.88,0.08,3.83,0.17,5.5-0.21c2.94-0.67,5.59-3.69,5.91-6.73c0.08-0.74,0.04-2.18,0-3.58
			c-0.1-3.52-0.12-5.89,0.48-6.98c0.46-0.83,1.54-1.6,2.45-1.75c1.82-0.3,3.65,0.87,4.07,2.61c0.43,1.81,0.22,8.39,0.12,9.73
			c-0.32,4.3-1.92,7.69-4.77,10.1C142.26,149.64,136.84,150.53,132.02,150.53z M129.84,145.8c-0.61,0-1.21,0.02-1.79,0.09
			c-0.92,0.1-0.96,0.77-0.96,0.91c0,0.19,0.09,0.81,1.12,0.9c5.02,0.47,11.92,0.28,16.17-3.31c2.28-1.93,3.57-4.71,3.83-8.27
			c0.14-1.85,0.23-7.71-0.06-8.92c-0.08-0.35-0.56-0.68-1.05-0.61c-0.14,0.04-0.48,0.29-0.56,0.42c-0.29,0.66-0.19,3.98-0.15,5.58
			c0.04,1.58,0.09,3.05-0.01,3.96c-0.44,4.22-3.86,8.11-7.96,9.05c-2.03,0.46-4.15,0.37-6.21,0.27h0
			C131.42,145.83,130.62,145.8,129.84,145.8z"/>
	</g>
	<g>
		<path class="st28" d="M77.01,150.53c-4.82,0-10.25-0.89-14.07-4.13c-2.85-2.41-4.45-5.8-4.77-10.1c-0.1-1.34-0.31-7.93,0.12-9.73
			c0.42-1.74,2.24-2.9,4.07-2.61c0.91,0.15,1.99,0.92,2.45,1.75c0.6,1.08,0.58,3.44,0.48,6.92c-0.04,1.45-0.08,2.9-0.01,3.63
			c0.32,3.04,2.97,6.06,5.91,6.73c1.67,0.38,3.62,0.29,5.5,0.21c1.54-0.07,3.14-0.14,4.59,0.03c2.2,0.25,3.33,1.99,3.31,3.58
			c-0.02,1.53-1.13,3.29-3.53,3.51C79.8,150.46,78.43,150.53,77.01,150.53z M61.77,126.57c-0.43,0-0.82,0.31-0.9,0.62
			c-0.29,1.21-0.19,7.06-0.06,8.92c0.26,3.56,1.55,6.34,3.83,8.27c4.25,3.59,11.13,3.79,16.17,3.31c1.03-0.1,1.12-0.71,1.12-0.9
			c0-0.14-0.04-0.8-0.96-0.91c-1.31-0.15-2.77-0.08-4.16-0.02h0c-2.06,0.09-4.18,0.19-6.21-0.27c-4.1-0.94-7.52-4.83-7.96-9.05
			c-0.1-0.91-0.05-2.38-0.01-3.93c0.05-1.64,0.14-4.95-0.16-5.63c-0.07-0.12-0.41-0.36-0.57-0.4
			C61.86,126.58,61.81,126.57,61.77,126.57z"/>
	</g>
	<g>
		<path class="st28" d="M147.31,85.08c-1.57-0.02-3.33-1.13-3.55-3.53v0c-0.14-1.51-0.07-3-0.01-4.43c0.14-3.24,0.27-6.03-1.83-8.55
			c-1.97-2.36-4.23-2.84-7.01-2.84c-0.73,0-1.47,0.03-2.23,0.06c-1.66,0.07-3.27,0.14-4.92-0.04c-2.21-0.25-3.24-1.91-3.29-3.44
			c-0.05-1.46,0.82-3.21,2.86-3.58c2.27-0.41,9.32-0.19,11.56,0.25c5.23,1.04,9.78,5.17,11.31,10.27c0.86,2.87,0.99,9.58,0.66,12.52
			C150.6,83.94,148.88,85.08,147.31,85.08z M146.4,81.31c0.1,1.03,0.72,1.12,0.9,1.12c0.14,0,0.8-0.05,0.91-0.96
			c0.3-2.68,0.17-9.01-0.56-11.46c-1.26-4.19-4.99-7.57-9.29-8.43c-1.96-0.39-8.61-0.6-10.56-0.24c-0.64,0.12-0.69,0.65-0.69,0.88
			c0.01,0.3,0.14,0.8,0.94,0.89c1.44,0.16,2.95,0.1,4.42,0.03c0.88-0.04,1.66-0.07,2.43-0.07c2.91,0,6.26,0.45,9.05,3.8
			c2.76,3.31,2.6,6.9,2.45,10.37C146.34,78.58,146.28,79.97,146.4,81.31z"/>
	</g>
	<g>
		<path class="st28" d="M125,91.83c-1.08,0-2.18-0.04-2.72-0.12c-1.03-0.16-3.09-1.58-3.09-3.02v-5.01h-9.64
			c-1.55,0-3.07-1.85-3.33-3.1c-0.26-1.22-0.26-5.31,0-6.53c0.24-1.15,1.01-2.11,2.05-2.58c0.98-0.45,2.16-0.4,3.12,0.14
			c0.38,0.21,1.55,1.35,1.75,1.99l0.06,0.39v2.59h10.25c1.06,0.1,2.75,1.8,2.84,2.72l0,5.32c0.51-0.01,1.03-0.02,1.55,0.07
			c1.99,0.36,2.98,2.11,2.94,3.65c-0.04,1.5-1.03,3.12-3.16,3.38C127.07,91.8,126.04,91.83,125,91.83z M121.85,88.45
			c0.2,0.23,0.66,0.58,0.88,0.65c0.78,0.12,3.69,0.11,4.57,0c0.66-0.08,0.81-0.49,0.82-0.82v-0.01c0-0.08,0.01-0.82-0.76-0.96
			c-0.31-0.06-0.73-0.04-1.14-0.03c-0.41,0.01-0.79,0.02-1.16,0l-1.24-0.08l-0.18-1.26v-6.16c-0.15-0.18-0.38-0.41-0.56-0.56
			l-12.53,0.01v-4.82c-0.18-0.21-0.43-0.47-0.54-0.55c-0.08-0.03-0.41-0.09-0.64,0.01c-0.28,0.13-0.48,0.39-0.55,0.71
			c-0.18,0.86-0.18,4.57,0,5.44c0.06,0.29,0.6,0.91,0.86,1.01l12.17-0.02V88.45z M123.75,79.95L123.75,79.95L123.75,79.95z
			 M122.92,79.12L122.92,79.12L122.92,79.12z"/>
	</g>
	<g>
		<path class="st28" d="M128.43,102c-2.19,0-4.39-0.07-5.51-0.2c-0.7-0.08-1.67-0.38-2.3-0.98c-0.96-0.92-1.3-2.41-0.87-3.79
			c0.39-1.25,1.34-2.1,2.53-2.29c1.95-0.31,4.25-0.18,6.47-0.06c1.89,0.11,3.81,0.21,5.4,0.05l0.33-0.03l0.3,0.12
			c1.65,0.66,2.59,2.15,2.4,3.79l0,0c-0.19,1.65-1.53,2.92-3.32,3.17C132.74,101.93,130.59,102,128.43,102z M125.14,97.2
			c-0.88,0-1.71,0.04-2.45,0.16c-0.18,0.03-0.32,0.19-0.41,0.46c-0.14,0.46-0.02,0.9,0.17,1.08c0.09,0.08,0.44,0.22,0.76,0.26
			c2.01,0.23,8.29,0.26,10.28-0.01c0.47-0.06,0.98-0.32,1.05-0.85c0.04-0.35-0.14-0.67-0.5-0.89c-1.7,0.13-3.58,0.03-5.41-0.07
			C127.45,97.26,126.25,97.2,125.14,97.2z"/>
	</g>
	<g>
		<path class="st28" d="M109.65,101.74c-1.64-0.06-3.35-1.11-3.55-3.27l0,0c-0.18-1.93-0.1-4.01-0.02-6.02
			c0.07-1.67,0.14-3.32,0.07-4.83l-0.01-0.27l0.1-0.26c0.52-1.36,1.88-2.33,3.32-2.37c0.04,0,0.07,0,0.11,0
			c1.53,0,2.97,1.11,3.36,2.63c0.4,1.54,0.37,9.83,0.11,11.36C112.78,100.8,111.13,101.74,109.65,101.74z M108.74,98.23
			c0.07,0.74,0.63,0.85,0.87,0.86c0,0,0,0,0,0c0.51,0,0.81-0.28,0.9-0.82c0.25-1.47,0.2-9.23-0.06-10.25
			c-0.09-0.35-0.38-0.65-0.82-0.64c-0.3,0.01-0.63,0.22-0.82,0.48c0.05,1.52-0.01,3.11-0.08,4.64
			C108.66,94.48,108.58,96.47,108.74,98.23L108.74,98.23z"/>
	</g>
	<g>
		<path class="st28" d="M133.37,91.76c-1.65-0.04-3.44-1.1-3.7-3.35c-0.19-1.7-0.23-7.01,0.06-8.73c0.25-1.5,1.44-2.78,2.81-3.04
			c0.98-0.18,2,0.04,2.8,0.62l0,0c0.8,0.58,1.3,1.44,1.42,2.42c0.22,1.81,0.24,7.71-0.02,9.36
			C136.48,90.65,135.1,91.76,133.37,91.76z M133.22,79.24c-0.06,0-0.12,0-0.18,0.02c-0.25,0.05-0.62,0.45-0.69,0.88
			c-0.25,1.47-0.21,6.49-0.04,7.98c0.1,0.9,0.82,0.99,1.04,0.99c0,0,0,0,0.01,0c0.19,0,0.69-0.04,0.76-0.47
			c0.22-1.43,0.2-7.04,0.01-8.64c-0.03-0.24-0.15-0.45-0.35-0.59l0,0C133.61,79.3,133.42,79.24,133.22,79.24z"/>
	</g>
	<g>
		<path class="st28" d="M116.32,101.8c-1.9,0-3.04-1.45-3.32-2.92c-0.37-1.94,0.65-3.7,2.38-4.1c1.43-0.33,2.74,0.04,3.6,1
			c0.87,0.99,1.14,2.46,0.67,3.75c-0.45,1.22-1.44,2.02-2.74,2.21C116.71,101.78,116.51,101.8,116.32,101.8z M116.39,97.32
			c-0.14,0-0.29,0.02-0.42,0.05l0,0c-0.43,0.1-0.41,0.78-0.36,1.02c0.16,0.85,0.72,0.77,0.91,0.74c0.22-0.03,0.5-0.12,0.63-0.5
			c0.13-0.36,0.06-0.83-0.17-1.09C116.84,97.37,116.62,97.32,116.39,97.32z"/>
	</g>
	<g>
		<path class="st28" d="M116.47,91.8c-0.42,0-0.87-0.07-1.32-0.21c-1.6-0.49-2.26-2.08-2.21-3.44c0.05-1.34,0.82-2.87,2.44-3.24h0
			c1.64-0.38,3.11,0.13,3.9,1.35c0.82,1.27,0.75,3.06-0.17,4.27C118.48,91.36,117.54,91.8,116.47,91.8z M115.98,87.5L115.98,87.5
			c-0.36,0.08-0.39,0.74-0.39,0.75c-0.01,0.29,0.09,0.73,0.34,0.81c0.79,0.24,1-0.04,1.07-0.13c0.24-0.32,0.27-0.89,0.06-1.22
			C116.88,87.44,116.52,87.38,115.98,87.5z"/>
	</g>
	<g>
		<g>
			<path class="st28" d="M126.99,129.72h-6.85c-2.12,0-3.85-1.73-3.85-3.85V119c0-2.12,1.73-3.85,3.85-3.85h6.87
				c2.12,0,3.85,1.73,3.85,3.85v6.85C130.85,127.98,129.12,129.72,126.99,129.72z M120.14,117.81c-0.66,0-1.19,0.53-1.19,1.19v6.87
				c0,0.66,0.53,1.19,1.19,1.19h6.85c0.66,0,1.21-0.54,1.21-1.21V119c0-0.66-0.53-1.19-1.19-1.19H120.14z M124.79,126.51h-2.45
				c-1.56,0-2.84-1.28-2.84-2.85v-2.44c0-1.57,1.27-2.85,2.84-2.85h2.45c1.57,0,2.84,1.28,2.84,2.85v2.44
				C127.63,125.23,126.36,126.51,124.79,126.51z M122.34,121.02c-0.1,0-0.18,0.08-0.18,0.2v2.44c0,0.11,0.08,0.2,0.18,0.2h2.45
				c0.1,0,0.18-0.08,0.18-0.2v-2.44c0-0.11-0.08-0.2-0.18-0.2H122.34z"/>
		</g>
		<g>
			<path class="st28" d="M132.87,138.55h-18.81c-3.62,0-6.56-2.94-6.56-6.56v-18.8c0-3.62,2.94-6.56,6.56-6.56h18.81
				c3.62,0,6.56,2.94,6.56,6.56v18.8C139.43,135.61,136.49,138.55,132.87,138.55z M114.07,109.29c-2.15,0-3.9,1.75-3.9,3.9v18.8
				c0,2.15,1.75,3.9,3.9,3.9h18.81c2.15,0,3.9-1.75,3.9-3.9v-18.8c0-2.15-1.75-3.9-3.9-3.9H114.07z M128.92,133.67h-10.9
				c-3.1,0-5.63-2.52-5.63-5.63v-10.9c0-3.1,2.52-5.63,5.63-5.63h10.9c3.1,0,5.62,2.52,5.62,5.62v10.9
				C134.55,131.14,132.02,133.67,128.92,133.67z M118.02,114.17c-1.64,0-2.97,1.33-2.97,2.97v10.9c0,1.64,1.33,2.97,2.97,2.97h10.9
				c1.64,0,2.97-1.33,2.97-2.97v-10.9c0-1.64-1.33-2.97-2.97-2.97H118.02z"/>
		</g>
	</g>
	<g>
		<g>
			<path class="st28" d="M89.2,129.72h-6.85c-2.12,0-3.85-1.73-3.85-3.85V119c0-2.12,1.73-3.85,3.85-3.85h6.87
				c2.12,0,3.85,1.73,3.85,3.85v6.85C93.06,127.98,91.33,129.72,89.2,129.72z M82.35,117.81c-0.66,0-1.19,0.53-1.19,1.19v6.87
				c0,0.66,0.53,1.19,1.19,1.19h6.85c0.67,0,1.21-0.54,1.21-1.21V119c0-0.66-0.53-1.19-1.19-1.19H82.35z M87,126.51h-2.45
				c-1.57,0-2.84-1.28-2.84-2.85v-2.44c0-1.57,1.27-2.85,2.84-2.85H87c1.56,0,2.84,1.28,2.84,2.85v2.44
				C89.84,125.23,88.56,126.51,87,126.51z M84.55,121.02c-0.1,0-0.18,0.08-0.18,0.2v2.44c0,0.11,0.08,0.2,0.18,0.2H87
				c0.1,0,0.18-0.08,0.18-0.2v-2.44c0-0.11-0.08-0.2-0.18-0.2H84.55z"/>
		</g>
		<g>
			<path class="st28" d="M95.08,138.55h-18.8c-3.62,0-6.56-2.94-6.56-6.56v-18.8c0-3.62,2.94-6.56,6.56-6.56h18.8
				c3.62,0,6.56,2.94,6.56,6.56v18.8C101.64,135.61,98.7,138.55,95.08,138.55z M76.28,109.29c-2.15,0-3.9,1.75-3.9,3.9v18.8
				c0,2.15,1.75,3.9,3.9,3.9h18.8c2.15,0,3.9-1.75,3.9-3.9v-18.8c0-2.15-1.75-3.9-3.9-3.9H76.28z M91.13,133.67h-10.9
				c-3.1,0-5.62-2.52-5.62-5.63v-10.9c0-3.1,2.52-5.63,5.62-5.63h10.9c3.1,0,5.63,2.52,5.63,5.62v10.9
				C96.76,131.14,94.23,133.67,91.13,133.67z M80.23,114.17c-1.64,0-2.97,1.33-2.97,2.97v10.9c0,1.64,1.33,2.97,2.97,2.97h10.9
				c1.64,0,2.97-1.33,2.97-2.97v-10.9c0-1.64-1.33-2.97-2.97-2.97H80.23z"/>
		</g>
	</g>
	<g>
		<g>
			<path class="st28" d="M89.2,93.16h-6.85c-2.12,0-3.85-1.73-3.85-3.85v-6.87c0-2.12,1.73-3.85,3.85-3.85h6.87
				c2.12,0,3.85,1.73,3.85,3.85v6.85C93.06,91.43,91.33,93.16,89.2,93.16z M82.35,81.26c-0.66,0-1.19,0.53-1.19,1.19v6.87
				c0,0.66,0.53,1.19,1.19,1.19h6.85c0.67,0,1.21-0.54,1.21-1.21v-6.85c0-0.66-0.53-1.19-1.19-1.19H82.35z M87,89.95h-2.45
				c-1.57,0-2.84-1.28-2.84-2.85v-2.44c0-1.57,1.27-2.85,2.84-2.85H87c1.56,0,2.84,1.28,2.84,2.85v2.44
				C89.84,88.67,88.56,89.95,87,89.95z M84.55,84.47c-0.1,0-0.18,0.08-0.18,0.2v2.44c0,0.11,0.08,0.2,0.18,0.2H87
				c0.1,0,0.18-0.08,0.18-0.2v-2.44c0-0.11-0.08-0.2-0.18-0.2H84.55z"/>
		</g>
		<g>
			<path class="st28" d="M95.08,102h-18.8c-3.62,0-6.56-2.94-6.56-6.56v-18.8c0-3.62,2.94-6.56,6.56-6.56h18.8
				c3.62,0,6.56,2.94,6.56,6.56v18.8C101.64,99.05,98.7,102,95.08,102z M76.28,72.73c-2.15,0-3.9,1.75-3.9,3.9v18.8
				c0,2.15,1.75,3.9,3.9,3.9h18.8c2.15,0,3.9-1.75,3.9-3.9v-18.8c0-2.15-1.75-3.9-3.9-3.9H76.28z M91.13,97.11h-10.9
				c-3.1,0-5.62-2.52-5.62-5.63v-10.9c0-3.1,2.52-5.63,5.62-5.63h10.9c3.1,0,5.63,2.52,5.63,5.63v10.9
				C96.76,94.59,94.23,97.11,91.13,97.11z M80.23,77.61c-1.64,0-2.97,1.33-2.97,2.97v10.9c0,1.64,1.33,2.97,2.97,2.97h10.9
				c1.64,0,2.97-1.33,2.97-2.97v-10.9c0-1.64-1.33-2.97-2.97-2.97H80.23z"/>
		</g>
	</g>
</g>
</svg>
