<?xml version="1.0" encoding="utf-8"?>
<!-- Generator: Adobe Illustrator 30.0.0, SVG Export Plug-In . SVG Version: 9.03 Build 0)  -->
<svg version="1.0" id="Layer_1" xmlns="http://www.w3.org/2000/svg" xmlns:xlink="http://www.w3.org/1999/xlink" x="0px" y="0px"
	 viewBox="0 0 209.04 209.04" style="enable-background:new 0 0 209.04 209.04;" xml:space="preserve">
<style type="text/css">
	.st0{clip-path:url(#SVGID_00000160897872149538117020000016943053705695851140_);}
	.st1{fill:#A19D99;}
	.st2{fill:#D4D4D4;}
	.st3{fill:#525252;}
	.st4{fill:#1F1F1F;}
	.st5{opacity:0.57;fill:#54524F;}
	.st6{fill:#191B1C;}
	.st7{opacity:0.32;fill:#54524F;}
	.st8{opacity:0.65;}
	.st9{opacity:0.55;fill:url(#SVGID_00000143581386189450753990000000576428283659508355_);}
	.st10{opacity:0.55;fill:url(#SVGID_00000085208715108574408400000000353975517828234368_);}
	.st11{opacity:0.29;fill:url(#SVGID_00000076588867345534009380000014322749047959860380_);}
	.st12{opacity:0.29;fill:url(#SVGID_00000046321514864311761000000011615131345682920854_);}
	.st13{fill:url(#SVGID_00000171686277483844178450000003204963792309226905_);}
	.st14{fill:url(#SVGID_00000090254307294918766960000015501638606455311240_);}
	.st15{fill:url(#SVGID_00000018197443354414811070000012261940697460843441_);}
	.st16{opacity:0.48;fill:url(#SVGID_00000133511085936389558420000014426646351024937856_);}
	.st17{fill:none;stroke:#E8F8F8;stroke-width:1.0846;stroke-miterlimit:10;}
	.st18{opacity:0.36;fill:#E8F8F8;}
	.st19{fill:url(#SVGID_00000041994486742556182080000005506860161588429497_);}
	.st20{fill:url(#SVGID_00000116922635858013954570000002757926181842774919_);}
	.st21{fill:url(#SVGID_00000057841640827009777630000012742913647580095131_);}
	.st22{fill:none;stroke:#E8F8F8;stroke-width:1.3611;stroke-miterlimit:10;}
	.st23{fill:url(#SVGID_00000057112372188118975990000004312260697568976814_);}
	.st24{fill:url(#SVGID_00000165208279214442367400000001468537683244393376_);}
	.st25{fill:url(#SVGID_00000107565100898311148330000000442331890642369437_);}
	.st26{fill:url(#SVGID_00000016770104363252713340000009264178348439331207_);}
	.st27{fill:#E8F8F8;}
	.st28{fill:#FFFFFF;}
</style>
<g>
	<g>
		<path class="st28" d="M112.63,158.5c-3.02,0-6.07-0.09-9.05-0.18c-4.83-0.14-9.82-0.3-14.55-0.05l-0.11,0.01l-0.11-0.01
			c-3.48-0.41-6.51-2.54-7.9-5.56l-0.08-0.21c-1.61-5.97-2.78-12.14-3.91-18.11c-0.66-3.45-1.33-7.01-2.09-10.5
			c-0.12-0.05-0.26-0.09-0.4-0.14c-0.38-0.14-0.74-0.28-0.96-0.4c-2.12-1.22-3.58-3.27-4.02-5.62c-0.44-2.37,0.21-4.82,1.77-6.75
			c0.77-0.95,3.48-2.84,5.03-2.84h1.58c-0.06-0.88-0.05-1.75-0.05-2.6c0.01-0.91,0.01-1.77-0.05-2.62L53.71,81.95
			c-3.7-2.83-3.64-7-1.63-9.63c1.98-2.6,5.94-3.75,9.66-0.91c3.3,3.18,6.45,6.4,9.5,9.51c5.4,5.52,10.99,11.22,16.89,16.3
			c2.68,2.3,6.32,5.88,7.87,10.91h5.49v-7.54c-0.15,0.01-0.31,0.02-0.46,0.03c-0.82,0.06-1.66,0.12-2.4-0.04
			c-1.05-0.22-1.77-1.29-2-1.83c-0.27-0.63-0.5-1.75-0.82-3.4c-0.13-0.65-0.31-1.57-0.44-2.07c-0.64-0.3-1.24-0.59-1.65-0.92
			c-1.55-1.28-2.42-2.97-2.43-4.77c-0.02-1.97,0.98-3.95,2.73-5.43c0.14-0.12,0.27-0.21,0.4-0.29c-0.35-1.41-1.37-2.7-2.44-4.06
			c-0.95-1.21-1.94-2.46-2.55-3.87c-2.49-5.73-1.7-12.07,2.1-16.97c3.78-4.87,9.67-7.19,15.77-6.21c5.53,0.88,10.17,4.52,12.4,9.72
			c2.27,5.29,1.7,11.27-1.54,16c-0.44,0.64-0.94,1.24-1.45,1.83c-1.02,1.19-1.9,2.23-2.17,3.64c0.22,0.12,0.5,0.29,0.79,0.54
			c1.58,1.42,2.42,3.24,2.38,5.13c-0.04,1.8-0.9,3.48-2.43,4.73c-0.41,0.34-1.03,0.64-1.68,0.94c-0.08,0.41-0.27,1.38-0.41,2.06
			c-0.12,0.6-0.22,1.12-0.32,1.58c8.95-9.36,18.65-19.05,29.55-29.52l0.27-0.2c5.36-3.02,10.51-1.07,13.24,2.21
			c2.71,3.26,3.68,8.67-0.28,13.44l-25.13,25.27h2.2c0.7,0,2.57,0.9,2.59,0.91c2.26,1.15,3.83,3.39,4.22,6.01
			c0.39,2.68-0.5,5.35-2.39,7.14c-0.75,0.71-1.62,1.11-2.38,1.46c-0.21,0.1-0.42,0.19-0.63,0.3c-0.92,3.93-1.65,8.05-2.35,12.04
			c-0.81,4.6-1.65,9.36-2.8,13.89c-1.33,5.23-4.44,8.05-9.26,8.39C117.41,158.44,115.03,158.5,112.63,158.5z M94.59,155.48
			c3.03,0,6.08,0.09,9.07,0.18c5.29,0.16,10.77,0.32,15.89-0.03c3.65-0.26,5.83-2.29,6.88-6.39c1.13-4.44,1.96-9.15,2.76-13.7
			c0.74-4.22,1.51-8.59,2.52-12.77l0.13-0.54l0.47-0.29c0.44-0.27,0.9-0.48,1.37-0.7c0.66-0.3,1.23-0.56,1.66-0.97
			c1.26-1.2,1.86-3.01,1.59-4.83c-0.26-1.79-1.28-3.26-2.79-4.03c-0.23-0.12-1.18-0.51-1.53-0.62h-8.44l29.55-29.71
			c3.11-3.75,2.07-7.72,0.2-9.95c-2-2.4-5.78-3.83-9.76-1.67c-11.76,11.29-22.11,21.67-31.62,31.71l-2.34,9.63h-5.33V97.96h4.89
			c0.08-0.09,0.17-0.21,0.2-0.28c0.17-0.39,0.44-1.8,0.64-2.83c0.42-2.12,0.58-2.85,0.91-3.3c0.22-0.3,0.47-0.42,0.97-0.65
			c0.28-0.13,0.94-0.43,1.12-0.59c0.93-0.76,1.43-1.71,1.46-2.74c0.02-1.11-0.51-2.2-1.5-3.1c-0.1-0.09-0.23-0.16-0.38-0.24
			c-0.45-0.24-1.51-0.81-1.3-2.37c0.31-2.33,1.65-3.89,2.82-5.27c0.44-0.52,0.89-1.04,1.28-1.61c2.72-3.97,3.2-9,1.29-13.45
			c-1.87-4.36-5.76-7.41-10.38-8.15c-5.12-0.81-10.08,1.13-13.25,5.22c-3.2,4.12-3.86,9.46-1.76,14.29c0.47,1.09,1.31,2.15,2.2,3.28
			c1.36,1.73,2.77,3.51,3.06,5.69c0.16,1.18-0.25,1.92-1.25,2.26c-1.3,1.04-1.95,2.28-1.94,3.45c0.01,1.01,0.51,1.96,1.46,2.74
			c0.19,0.15,0.84,0.46,1.12,0.59c0.5,0.23,0.74,0.34,0.97,0.65c0.33,0.45,0.5,1.18,0.91,3.3c0.2,1.03,0.48,2.44,0.65,2.85
			c0.03,0.08,0.15,0.23,0.23,0.31c0.39,0.05,1,0.01,1.55-0.03c0.73-0.05,1.48-0.1,2.16-0.01l1.14,0.16v12.65h-10.2l-0.24-1.02
			c-0.88-3.67-3.2-7.01-7.3-10.53c-5.99-5.15-11.62-10.9-17.06-16.45c-3.04-3.1-6.18-6.31-9.33-9.36c-2.34-1.77-4.64-1.04-5.82,0.51
			c-1.21,1.58-1.31,4.04,1.2,5.96l24.89,21.69l0.06,0.51c0.14,1.18,0.13,2.33,0.12,3.45c-0.01,1.29-0.02,2.5,0.19,3.68l0.27,1.56
			h-4.65c-0.55,0.06-2.48,1.26-2.97,1.86c-1.09,1.34-1.52,2.97-1.22,4.59c0.3,1.6,1.27,2.95,2.73,3.8c0.12,0.07,0.33,0.14,0.54,0.21
			c0.81,0.29,1.57,0.57,1.89,1.3l0.08,0.25c0.81,3.68,1.52,7.45,2.21,11.09c1.12,5.88,2.27,11.96,3.84,17.8
			c1.01,2.11,3.16,3.6,5.64,3.92C90.85,155.52,92.72,155.48,94.59,155.48z M107.53,108.13h0.59l1.82-7.52h-2.41V108.13z
			 M112.31,155.12c-2.99,0-6.01-0.1-8.98-0.19c-4.68-0.15-9.52-0.31-14.06-0.07l-0.13,0.01l-0.12-0.02
			c-3.19-0.44-5.44-2.9-5.71-6.27l-0.12-1.44h42.69l-0.16,1.47c-0.4,3.72-2.73,6-6.39,6.28
			C117.03,155.06,114.68,155.12,112.31,155.12z M94.43,152.08c2.99,0,6.02,0.1,8.99,0.19c5.24,0.17,10.67,0.34,15.71-0.03
			c1.86-0.14,3.05-0.94,3.62-2.44H86.28c0.52,1.29,1.58,2.17,2.99,2.4C90.96,152.11,92.69,152.08,94.43,152.08z M126.14,146.31
			H82.89l-4.96-24.61h53.17L126.14,146.31z M85.06,143.65h38.9l3.89-19.3H81.17L85.06,143.65z M108.15,120.99
			c-5.81,0-11.58-0.02-17.28-0.04c-4.71-0.02-9.42-0.03-14.13-0.04l-0.28-0.03c-2.14-0.46-3.63-2.28-3.71-4.53
			c-0.08-2.18,1.25-4.04,3.29-4.64c0.88-0.25,4.74-0.36,5.58-0.16c0.48,0.12,0.69,0.39,1.08,0.88c0.18,0.23,0.4,0.52,0.55,0.66
			c1.67,1.33,3.51,1.93,5.66,1.83c1.04-0.05,4.99-0.79,5.65-1.1c0.1-0.05,0.18-0.09,0.15-0.67c-0.02-0.27-0.05-0.77,0.36-1.21
			l0.39-0.42l0.58,0h13.56l-0.25,1.94c-0.06,0.44-0.17,1.19-0.07,1.38l0,0c0.01,0,0.05,0.02,0.15,0.05l13.72-3.37l0.23,0.03
			c1.07,0.12,2.41,0.04,3.84-0.05c1.92-0.11,3.91-0.23,5.51,0.14c2.05,0.48,3.43,2.19,3.52,4.37c0.08,2.19-1.23,4.1-3.26,4.74
			l-0.38,0.06C124.51,120.95,116.3,120.99,108.15,120.99z M76.9,118.26c4.66,0.01,9.32,0.02,13.98,0.04
			c13.61,0.04,27.69,0.09,41.5-0.13c0.96-0.39,1.27-1.33,1.24-2.05c-0.03-0.75-0.43-1.64-1.47-1.88c-1.22-0.28-3.01-0.18-4.75-0.08
			c-1.38,0.08-2.81,0.17-4.05,0.06l-13.8,3.39l-0.25-0.04c-0.95-0.13-1.66-0.51-2.13-1.13c-0.51-0.68-0.6-1.49-0.56-2.26h-9.33
			c-0.19,0.94-0.71,1.62-1.56,2.03c-1.14,0.56-5.61,1.32-6.69,1.37c-2.76,0.14-5.27-0.68-7.45-2.42c-0.29-0.23-0.57-0.58-0.94-1.05
			c-0.99-0.04-3.38,0.05-3.87,0.16c-1.32,0.38-1.38,1.62-1.36,1.99C75.43,117.01,75.84,117.97,76.9,118.26z M88.4,114.14
			c-2.17,0-4.26-0.72-5.88-2.99c-1.53-2.15-1.64-6.29-1.34-8.55c0.15-1.12,1.53-2.48,2.2-2.93c0.58-0.39,1.13-0.51,1.65-0.37
			c1.11,0.3,4.29,3.76,4.31,3.79c1.75,2.08,3.78,5.52,4.2,8.95l0.14,1.14l-1.11,0.3C91.22,113.85,89.79,114.14,88.4,114.14z
			 M84.56,102.12c-0.32,0.3-0.69,0.74-0.78,0.97c-0.26,2.08,0.02,5.28,0.9,6.53c1.26,1.77,2.95,2.25,6,1.6
			c-0.53-2.11-1.78-4.51-3.38-6.41C86.95,104.38,85.4,102.83,84.56,102.12z M110.11,114.02l2.98-12.26l9.26,9.28L110.11,114.02z
			 M114.56,106.98l-0.83,3.42l3.42-0.83L114.56,106.98z M123.16,110.14l-0.86-0.45c-0.38-0.2-2.61-2.43-2.8-2.81
			c-0.46-0.89-0.15-1.52,0.18-1.9l24.73-24.72l0.42-0.07c1.35-0.24,3.91,2.98,3.93,3.02c0.46,0.89,0.15,1.53-0.18,1.91
			L123.16,110.14z M122.32,106.1c0.18,0.18,0.38,0.38,0.58,0.58l23.04-22.69c-0.23-0.22-0.51-0.49-0.77-0.72L122.32,106.1z
			 M118.09,105.05l-0.85-0.43c-0.38-0.19-2.62-2.43-2.82-2.82c-0.48-0.93-0.09-1.59,0.18-1.9l24.73-24.72l0.41-0.07
			c1.45-0.24,3.92,2.99,3.94,3.02c0.49,0.93,0.09,1.59-0.2,1.91L118.09,105.05z M117.24,101.01c0.18,0.18,0.38,0.38,0.58,0.57
			l23.04-22.69c-0.23-0.22-0.51-0.49-0.77-0.72L117.24,101.01z M80.71,100.41C80.71,100.41,80.71,100.41,80.71,100.41
			c-0.6,0-1.09-0.34-1.97-1.05c-4.18-3.31-8.12-6.94-11.94-10.46c-3.79-3.48-7.7-7.09-11.71-10.26l-0.19-0.19
			c-1.06-1.27-1.06-3,0.02-4.21c1.09-1.22,2.81-1.45,4.19-0.54l0.21,0.17l23.03,23.04c0.53,0.45,0.72,1.15,0.5,1.83
			C82.6,99.53,81.65,100.41,80.71,100.41z M56.87,76.66c4.03,3.21,7.94,6.81,11.73,10.29c0.16,0.14,0.31,0.29,0.47,0.43L57.56,75.87
			c-0.32-0.16-0.54,0.01-0.65,0.14C56.73,76.21,56.72,76.43,56.87,76.66z M100.66,97.24l-0.17-0.05c-1.58-0.43-1.76-4.73-1.72-4.94
			l0.21-1.08h11.59l-1.17,6.02L100.66,97.24z M101.59,93.83c0.06,0.25,0.12,0.51,0.18,0.75l5.44-0.02l0.14-0.72H101.59z
			 M108.37,90.63c-1.42,0-2.88-0.08-4.32-0.16c-2.24-0.12-4.55-0.25-6.47-0.06l-0.17,0.02l-0.17-0.03
			c-1.41-0.22-2.43-1.34-2.52-2.78c-0.1-1.45,0.8-2.74,2.17-3.14l0.37-0.05l14.44-0.03l0.1,0.02c1.49,0.23,2.53,1.47,2.53,3
			c0,1.53-1.04,2.76-2.53,2.99C110.72,90.58,109.57,90.63,108.37,90.63z M99.87,87.66c1.41,0,2.88,0.08,4.32,0.16
			c2.52,0.14,5.14,0.29,7.19-0.04c0.07-0.01,0.28-0.04,0.28-0.37c0-0.25-0.12-0.33-0.21-0.36l-13.94,0.03
			c-0.15,0.1-0.16,0.26-0.15,0.37c0.01,0.18,0.09,0.26,0.17,0.3C98.28,87.69,99.07,87.66,99.87,87.66z M111.12,83.66H97.91
			l-0.02-1.31c-0.02-1.39-0.74-3.19-1.46-4.35c-0.34-0.56-0.83-1.1-1.35-1.67c-0.47-0.52-0.96-1.06-1.37-1.65
			c-2.12-3.08-2.86-6.92-2.04-10.53c0.82-3.62,3.04-6.63,6.26-8.49c4.75-2.74,10.36-2.37,14.63,0.98c4.34,3.4,6.08,8.84,4.53,14.2
			c-0.63,2.19-1.91,3.85-3.15,5.46c-1.51,1.95-2.81,3.64-2.83,6.06L111.12,83.66z M100.42,81h8.16c0.39-2.6,1.86-4.5,3.28-6.34
			c1.14-1.47,2.21-2.86,2.7-4.57c1.24-4.3-0.15-8.65-3.62-11.37c-3.4-2.66-7.87-2.95-11.67-0.77c-2.57,1.48-4.34,3.89-5,6.78
			c-0.66,2.94-0.08,5.93,1.64,8.44c0.31,0.45,0.72,0.9,1.15,1.37c0.58,0.64,1.17,1.29,1.65,2.07C99.39,77.74,100.13,79.37,100.42,81
			z M150.29,83.33l-9.41-9.24l0.64-0.92c0.74-1.05,2.74-3.54,5.47-3.97l0,0c2.55-0.4,4.99,0.58,6.53,2.62
			c1.55,2.04,1.83,4.67,0.75,7.04c-0.56,1.22-1.55,2.14-2.42,2.95c-0.22,0.2-0.43,0.4-0.63,0.6L150.29,83.33z M144.39,73.81
			l5.92,5.81c0.64-0.6,1.26-1.22,1.55-1.87c0.67-1.46,0.5-3.07-0.46-4.33c-0.94-1.24-2.43-1.84-4-1.6
			C146.32,71.99,145.23,72.86,144.39,73.81z"/>
	</g>
	<g>
		<path class="st28" d="M87.22,68.39H74.41v-6.05h12.81V68.39z M77.07,65.74h7.5V65h-7.5V65.74z"/>
	</g>
	<g>
		<path class="st28" d="M134.61,68.39H121.8v-6.05h12.81V68.39z M124.46,65.74h7.5V65h-7.5V65.74z"/>
	</g>
	<g>
		<path class="st28" d="M84.73,62.68c-0.78,0-1.19-0.3-5.01-4.27c-0.92-0.96-2.07-2.16-2.37-2.38c-0.54-0.54-0.68-1.12-0.51-1.71
			c0.3-1.09,2.23-2.95,2.93-3.14l0.01,0c0.7-0.19,1.37,0.01,1.88,0.53l6.39,6.54c0.88,1.91-2.03,3.86-2.62,4.23l-0.32,0.2
			L84.73,62.68C84.73,62.68,84.73,62.68,84.73,62.68z M79.73,54.61c0.43,0.43,1.06,1.08,1.91,1.96c0.91,0.94,2.29,2.38,3.1,3.13
			c0.22-0.18,0.43-0.38,0.59-0.55l-5.06-5.09C80.08,54.23,79.89,54.43,79.73,54.61z M79.78,53.57
			C79.78,53.57,79.78,53.57,79.78,53.57L79.78,53.57z"/>
	</g>
	<g>
		<path class="st28" d="M124.43,62.6c-0.33,0-0.69-0.09-1.08-0.29c-0.72-0.38-2.91-2.28-2.54-3.7c0.23-0.88,6.54-7.2,7.42-7.43h0
			c0.52-0.13,1.29-0.11,2.71,1.31c1.39,1.4,1.42,2.17,1.28,2.69c-0.19,0.72-0.89,1.44-3.55,3.9c-1.02,0.94-2.56,2.36-2.82,2.78
			l-0.13,0.17C125.44,62.34,124.99,62.6,124.43,62.6z M123.67,59.09c0.16,0.2,0.36,0.41,0.55,0.58c0.58-0.63,1.46-1.45,2.66-2.55
			c0.81-0.75,1.94-1.79,2.52-2.41c-0.19-0.22-0.45-0.48-0.67-0.68C127.5,55.14,124.76,57.88,123.67,59.09z"/>
	</g>
	<g>
		<path class="st28" d="M80.42,79.56c-0.33,0-0.69-0.09-1.08-0.29c-0.72-0.38-2.91-2.28-2.54-3.7c0.23-0.88,6.54-7.2,7.42-7.43l0,0
			c0.5-0.13,1.29-0.12,2.68,1.28c1.42,1.42,1.44,2.19,1.31,2.71c-0.19,0.72-0.88,1.44-3.55,3.9c-1.02,0.94-2.56,2.36-2.82,2.78
			l-0.13,0.17C81.43,79.3,80.98,79.56,80.42,79.56z M79.66,76.05c0.16,0.2,0.36,0.41,0.55,0.58c0.58-0.63,1.46-1.45,2.65-2.55
			c0.81-0.75,1.94-1.79,2.52-2.41c-0.19-0.22-0.44-0.48-0.67-0.68C83.5,72.09,80.76,74.84,79.66,76.05z M79.36,75.61L79.36,75.61z"
			/>
	</g>
	<g>
		<path class="st28" d="M128.73,79.63c-0.78,0-1.19-0.3-5.01-4.27c-0.92-0.96-2.07-2.16-2.37-2.38c-0.54-0.54-0.68-1.12-0.51-1.72
			c0.31-1.1,2.24-2.95,2.94-3.13h0c0.69-0.18,1.37,0,1.88,0.53l6.39,6.54c0.88,1.9-2.03,3.86-2.62,4.23l-0.32,0.2L128.73,79.63
			C128.74,79.63,128.74,79.63,128.73,79.63z M123.73,71.57c0.43,0.43,1.06,1.08,1.91,1.96c0.91,0.94,2.29,2.38,3.09,3.13
			c0.22-0.18,0.43-0.38,0.59-0.55l-5.06-5.09C124.09,71.19,123.89,71.39,123.73,71.57z M123.79,70.53
			C123.79,70.53,123.79,70.53,123.79,70.53L123.79,70.53z"/>
	</g>
	<g>
		<path class="st28" d="M114.3,68.39h-5.99l-0.04-1.28c-0.07-2.1-1.7-3.74-3.79-3.8l-1.29-0.04v-5.99l1.31-0.02
			c2.51-0.01,5.03,0.98,6.9,2.84c1.86,1.85,2.92,4.39,2.91,6.98L114.3,68.39z M110.75,65.74h0.78c-0.26-1.4-0.95-2.71-2.01-3.76
			c-1.04-1.03-2.31-1.7-3.69-1.95v0.79C108.3,61.37,110.2,63.27,110.75,65.74z"/>
	</g>
</g>
</svg>
